<?xml version="1.0" encoding="UTF-8"?>
<!DOCTYPE svg PUBLIC "-//W3C//DTD SVG 1.1//EN" "http://www.w3.org/Graphics/SVG/1.1/DTD/svg11.dtd">
<svg xmlns="http://www.w3.org/2000/svg" version="1.1" width="1000px" height="1000px" style="shape-rendering:geometricPrecision; text-rendering:geometricPrecision; image-rendering:optimizeQuality; fill-rule:evenodd; clip-rule:evenodd" xmlns:xlink="http://www.w3.org/1999/xlink">
<g><path style="opacity:0.903" fill="#fff" d="M 385.5,90.5 C 386.496,90.5858 387.329,90.2524 388,89.5C 399.355,74.4684 411.855,60.3017 425.5,47C 426.635,46.2506 427.635,46.4173 428.5,47.5C 404.607,78.9573 387.94,113.957 378.5,152.5C 378.833,153.167 379.167,153.833 379.5,154.5C 408.334,138.997 439,129.997 471.5,127.5C 470.36,129.078 469.86,130.744 470,132.5C 474.582,129.124 479.415,126.124 484.5,123.5C 485.355,125.608 486.022,127.774 486.5,130C 486.241,131.261 485.574,132.261 484.5,133C 460.748,148.412 437.248,164.245 414,180.5C 411.295,189.573 409.461,198.906 408.5,208.5C 408.304,210.286 407.471,211.619 406,212.5C 406.034,199.807 406.534,187.141 407.5,174.5C 425.342,162.168 443.342,150.001 461.5,138C 447.375,140.363 433.375,143.697 419.5,148C 403.75,154.045 388.416,160.878 373.5,168.5C 373.083,178.506 372.916,188.506 373,198.5C 374.625,204.908 378.125,210.075 383.5,214C 396.576,224.288 409.743,234.454 423,244.5C 427.952,254.792 432.452,265.292 436.5,276C 428.181,289.657 418.348,302.157 407,313.5C 401.388,309.559 396.055,305.226 391,300.5C 379.187,286.866 367.854,272.866 357,258.5C 351.306,252.806 345.64,247.14 340,241.5C 334.965,233.105 330.298,224.438 326,215.5C 323.206,213.581 321.706,210.914 321.5,207.5C 324.097,207.357 326.431,206.523 328.5,205C 327.919,204.107 327.585,203.107 327.5,202C 330.958,183.225 335.458,164.725 341,146.5C 344.172,142.159 346.839,137.492 349,132.5C 352.407,128.682 355.574,124.682 358.5,120.5C 357.998,119.479 357.332,119.312 356.5,120C 337.026,132.812 317.859,145.979 299,159.5C 298.219,158.056 298.386,156.723 299.5,155.5C 307.375,146.946 315.375,138.446 323.5,130C 343.796,115.512 364.129,101.012 384.5,86.5C 385.429,87.6888 385.762,89.0222 385.5,90.5 Z M 385.5,90.5 C 383.883,93.7843 381.55,96.4509 378.5,98.5C 379.412,96.4048 380.579,94.4048 382,92.5C 382.816,91.1772 383.983,90.5106 385.5,90.5 Z M 375.5,100.5 C 375.573,102.027 374.906,103.027 373.5,103.5C 373.427,101.973 374.094,100.973 375.5,100.5 Z M 363.5,114.5 C 363.573,116.027 362.906,117.027 361.5,117.5C 361.427,115.973 362.094,114.973 363.5,114.5 Z"/></g>
<g><path style="opacity:0.902" fill="#fff" d="M 570.5,46.5 C 571.552,46.3505 572.552,46.5172 573.5,47C 587.058,60.2252 599.558,74.3919 611,89.5C 614.772,92.3603 618.105,95.6936 621,99.5C 619.814,95.2004 617.147,91.867 613,89.5C 612.399,88.0347 612.899,87.0347 614.5,86.5C 635.176,101.17 655.843,115.837 676.5,130.5C 684,138.833 691.5,147.167 699,155.5C 701.384,158.391 701.05,159.391 698,158.5C 685.443,148.942 672.609,139.775 659.5,131C 653.696,127.595 648.03,123.928 642.5,120C 641.241,119.018 639.908,118.685 638.5,119C 642.667,123.833 646.833,128.667 651,133.5C 652.844,138.688 655.344,143.521 658.5,148C 661.339,158.216 664.173,168.382 667,178.5C 668.341,186.199 669.841,193.865 671.5,201.5C 671.43,202.772 671.097,203.938 670.5,205C 672.569,206.523 674.903,207.357 677.5,207.5C 677.102,210.744 675.602,213.411 673,215.5C 667.931,223.915 663.265,232.581 659,241.5C 652.054,247.956 645.387,254.623 639,261.5C 625.978,280.525 610.811,297.691 593.5,313C 593,313.167 592.5,313.333 592,313.5C 581.25,302.412 571.583,290.412 563,277.5C 564.367,271.4 566.367,265.4 569,259.5C 572.05,254.342 574.717,249.008 577,243.5C 593.225,232.275 608.558,219.942 623,206.5C 625.719,201.509 626.886,196.176 626.5,190.5C 626.077,183.495 625.577,176.495 625,169.5C 598.244,153.581 569.411,143.414 538.5,139C 555.417,149.577 572.084,160.577 588.5,172C 590.333,173.167 591.833,174.667 593,176.5C 593.833,188.514 593.666,200.514 592.5,212.5C 592.167,212.333 591.833,212.167 591.5,212C 590.023,201.292 587.857,190.792 585,180.5C 560.929,163.579 536.762,146.912 512.5,130.5C 513.06,128.146 513.727,125.813 514.5,123.5C 521.474,127.323 528.141,131.656 534.5,136.5C 533.946,133.424 532.613,130.257 530.5,127C 549.68,128.794 568.347,133.127 586.5,140C 598.513,144.655 610.18,149.655 621.5,155C 619.106,146.927 616.94,138.76 615,130.5C 607.312,111.123 598.645,92.1231 589,73.5C 582.587,64.6014 576.42,55.6014 570.5,46.5 Z M 623.5,100.5 C 624.906,100.973 625.573,101.973 625.5,103.5C 624.094,103.027 623.427,102.027 623.5,100.5 Z"/></g>
<g><path style="opacity:0.759" fill="#fff" d="M 492.5,97.5 C 531.295,96.6871 568.629,103.52 604.5,118C 605.833,121.333 607.167,124.667 608.5,128C 602.293,126.82 596.293,124.82 590.5,122C 530.939,103.046 471.273,102.712 411.5,121C 405.689,123.66 399.689,125.826 393.5,127.5C 393.216,124.223 393.549,121.057 394.5,118C 425.987,105.034 458.654,98.2007 492.5,97.5 Z"/></g>
<g><path style="opacity:0.885" fill="#fff" d="M 663.5,150.5 C 664.922,150.709 666.255,151.209 667.5,152C 681.305,162.474 694.138,173.974 706,186.5C 710.655,181.679 715.488,177.012 720.5,172.5C 729.676,182.874 738.843,193.207 748,203.5C 748.991,205.447 749.325,207.447 749,209.5C 744.167,213.667 739.333,217.833 734.5,222C 752.122,246.9 764.789,273.9 772.5,303C 769.571,303.777 766.737,303.61 764,302.5C 755.739,275.978 743.739,251.311 728,228.5C 718.662,237.503 708.995,246.17 699,254.5C 691.703,247.535 684.703,240.201 678,232.5C 680.045,225.003 681.711,217.337 683,209.5C 688.446,204.054 693.946,198.554 699.5,193C 688.657,182.01 677.157,171.844 665,162.5C 663.646,158.637 663.146,154.637 663.5,150.5 Z"/></g>
<g><path style="opacity:0.886" fill="#fff" d="M 331.5,151.5 C 332.5,151.5 333.5,151.5 334.5,151.5C 333.194,155.391 332.194,159.391 331.5,163.5C 320.031,172.47 309.364,182.303 299.5,193C 305.36,198.86 311.194,204.694 317,210.5C 317.721,218.03 319.055,225.363 321,232.5C 314.269,240.228 307.269,247.561 300,254.5C 289.996,246.16 280.329,237.493 271,228.5C 264.329,237.167 258.662,246.501 254,256.5C 246.616,271.163 240.116,286.163 234.5,301.5C 231.828,300.499 229.161,299.499 226.5,298.5C 234.119,277.592 243.119,257.259 253.5,237.5C 257.056,232.208 260.723,227.041 264.5,222C 259.667,217.833 254.833,213.667 250,209.5C 250.168,206.328 251.168,203.328 253,200.5C 261.724,191.397 270.224,182.064 278.5,172.5C 283.459,176.957 288.292,181.624 293,186.5C 297.811,182.02 302.311,177.187 306.5,172C 315.192,165.647 323.526,158.814 331.5,151.5 Z"/></g>
<g><path style="opacity:0.934" fill="#fff" d="M 497.5,152.5 C 498.978,152.238 500.311,152.571 501.5,153.5C 508.345,167.855 515.178,182.189 522,196.5C 522.667,220.833 522.667,245.167 522,269.5C 515.189,278.808 507.689,287.474 499.5,295.5C 491.774,287.06 484.274,278.394 477,269.5C 476.333,245.167 476.333,220.833 477,196.5C 484.136,181.899 490.969,167.232 497.5,152.5 Z"/></g>
<g><path style="opacity:0.729" fill="#fff" d="M 556.5,178.5 C 561.225,180.031 565.559,182.364 569.5,185.5C 570.233,196.516 570.9,207.516 571.5,218.5C 570.022,218.762 568.689,218.429 567.5,217.5C 565.751,212.995 563.251,208.995 560,205.5C 559.233,201.442 559.4,197.442 560.5,193.5C 558.709,190.21 556.376,187.377 553.5,185C 554.391,182.721 555.391,180.554 556.5,178.5 Z"/></g>
<g><path style="opacity:0.731" fill="#fff" d="M 439.5,179.5 C 443.091,179.461 445.091,181.294 445.5,185C 443.507,188.299 440.841,190.965 437.5,193C 438.743,194.87 439.41,197.036 439.5,199.5C 439.333,201.5 439.167,203.5 439,205.5C 435.918,208.659 433.584,212.325 432,216.5C 430.561,218.014 429.061,218.347 427.5,217.5C 428.145,206.864 428.812,196.197 429.5,185.5C 432.631,183.008 435.965,181.008 439.5,179.5 Z"/></g>
<g><path style="opacity:0.917" fill="#fff" d="M 440.5,207.5 C 441.376,207.369 442.043,207.702 442.5,208.5C 449.29,224.036 455.79,239.702 462,255.5C 462.436,257.847 462.936,260.181 463.5,262.5C 462.76,266.638 461.926,270.638 461,274.5C 462.447,276.403 464.114,278.07 466,279.5C 470.95,286.827 475.95,294.16 481,301.5C 484.523,303.901 488.356,305.734 492.5,307C 496.765,314.002 501.098,314.168 505.5,307.5C 508.495,306.336 511.495,305.17 514.5,304C 522.683,294.479 530.517,284.646 538,274.5C 537.129,270.613 536.295,266.613 535.5,262.5C 539.93,247.683 545.263,233.183 551.5,219C 553.641,215.216 555.641,211.383 557.5,207.5C 559.156,209.46 560.823,211.46 562.5,213.5C 565.936,221.312 569.269,229.145 572.5,237C 568.882,246.396 564.882,255.563 560.5,264.5C 558.61,264.703 557.11,264.037 556,262.5C 552.958,274.664 549.291,286.664 545,298.5C 535.358,314.786 526.525,331.453 518.5,348.5C 514.104,355.054 509.938,361.721 506,368.5C 503.928,371.971 502.428,375.638 501.5,379.5C 500.167,379.5 498.833,379.5 497.5,379.5C 496.572,375.638 495.072,371.971 493,368.5C 489.416,362.331 485.583,356.331 481.5,350.5C 473.46,333.421 464.627,316.755 455,300.5C 449.839,288.184 445.839,275.517 443,262.5C 441.604,264.527 439.938,264.86 438,263.5C 433.676,254.689 429.842,245.689 426.5,236.5C 430.393,226.383 435.059,216.717 440.5,207.5 Z"/></g>
<g><path style="opacity:0.718" fill="#fff" d="M 321.5,235.5 C 325.642,237.117 327.142,240.117 326,244.5C 320.659,250.533 315.326,256.533 310,262.5C 308.326,261.165 306.659,259.831 305,258.5C 304.333,257.5 304.333,256.5 305,255.5C 309.991,250.208 314.991,244.875 320,239.5C 320.41,238.099 320.91,236.766 321.5,235.5 Z"/></g>
<g><path style="opacity:0.714" fill="#fff" d="M 675.5,235.5 C 681.722,241.898 687.889,248.564 694,255.5C 694.667,256.5 694.667,257.5 694,258.5C 692.028,259.305 690.528,260.639 689.5,262.5C 684.103,257.359 678.937,252.026 674,246.5C 671.842,242.461 672.342,238.794 675.5,235.5 Z"/></g>
<g><path style="opacity:0.846" fill="#fff" d="M 270.5,240.5 C 271.552,240.351 272.552,240.517 273.5,241C 275.979,244.647 278.979,247.813 282.5,250.5C 284.124,251.869 284.624,253.536 284,255.5C 282.721,258.112 281.055,260.445 279,262.5C 273.97,271.896 269.47,281.562 265.5,291.5C 260.393,295.05 255.059,298.05 249.5,300.5C 250.176,291.272 252.676,282.605 257,274.5C 258.667,268.833 260.333,263.167 262,257.5C 265.904,252.358 268.738,246.691 270.5,240.5 Z"/></g>
<g><path style="opacity:0.845" fill="#fff" d="M 725.5,240.5 C 726.675,240.281 727.675,240.614 728.5,241.5C 730.843,247.687 733.843,253.52 737.5,259C 739.886,268.16 743.052,276.993 747,285.5C 747.997,290.486 748.831,295.486 749.5,300.5C 743.941,298.05 738.607,295.05 733.5,291.5C 728.566,278.864 722.399,266.864 715,255.5C 714.333,254.5 714.333,253.5 715,252.5C 719.053,248.95 722.553,244.95 725.5,240.5 Z"/></g>
<g><path style="opacity:0.702" fill="#fff" d="M 327.5,249.5 C 328.5,249.5 329.5,249.5 330.5,249.5C 330.649,252.607 330.149,255.607 329,258.5C 326.027,262.974 322.86,267.307 319.5,271.5C 316.94,269.727 314.607,267.727 312.5,265.5C 316.898,259.44 321.898,254.107 327.5,249.5 Z"/></g>
<g><path style="opacity:0.713" fill="#fff" d="M 668.5,249.5 C 671.005,249.98 673.338,250.98 675.5,252.5C 678.764,256.687 682.264,260.687 686,264.5C 686.667,265.167 686.667,265.833 686,266.5C 684.075,267.88 682.241,269.38 680.5,271C 676.872,268.318 673.705,264.818 671,260.5C 669.378,257.013 668.545,253.346 668.5,249.5 Z"/></g>
<g><path style="opacity:0.777" fill="#fff" d="M 693.5,261.5 C 694.675,261.281 695.675,261.614 696.5,262.5C 724.812,314.423 732.312,369.423 719,427.5C 713.032,448.72 704.699,469.054 694,488.5C 693.275,489.059 692.442,489.392 691.5,489.5C 689.374,488.214 687.041,487.381 684.5,487C 724.986,414.8 726.653,341.633 689.5,267.5C 690.432,265.235 691.765,263.235 693.5,261.5 Z"/></g>
<g><path style="opacity:0.78" fill="#fff" d="M 301.5,262.5 C 303.91,263.383 306.243,264.55 308.5,266C 309.022,266.561 309.355,267.228 309.5,268C 283.283,317.422 276.283,369.588 288.5,424.5C 291.425,433.443 294.258,442.443 297,451.5C 301.564,463.128 307.064,474.295 313.5,485C 312.021,487.336 309.854,488.836 307,489.5C 306.228,489.355 305.561,489.022 305,488.5C 269.743,424.666 264.41,358.332 289,289.5C 293.085,280.386 297.252,271.386 301.5,262.5 Z"/></g>
<g><path style="opacity:0.777" fill="#fff" d="M 329.5,267.5 C 331.606,267.679 333.272,268.679 334.5,270.5C 336.88,275.43 339.88,279.93 343.5,284C 340.971,286.252 338.804,288.752 337,291.5C 331.523,287.024 326.356,282.19 321.5,277C 324.681,274.315 327.347,271.148 329.5,267.5 Z"/></g>
<g><path style="opacity:0.788" fill="#fff" d="M 666.5,267.5 C 667.552,267.351 668.552,267.517 669.5,268C 671.866,271.36 674.533,274.36 677.5,277C 672.678,282.154 667.511,286.987 662,291.5C 659.916,288.998 658.083,286.331 656.5,283.5C 660.256,278.415 663.589,273.082 666.5,267.5 Z"/></g>
<g><path style="opacity:0.875" fill="#fff" d="M 438.5,280.5 C 439.87,280.856 440.87,281.69 441.5,283C 449.348,300.528 457.848,317.695 467,334.5C 467.749,335.635 467.583,336.635 466.5,337.5C 457.58,332.729 449.08,327.395 441,321.5C 436.247,325.932 431.247,329.932 426,333.5C 421.011,329.18 416.011,324.847 411,320.5C 410.259,317.888 411.259,316.222 414,315.5C 422.189,303.767 430.356,292.1 438.5,280.5 Z"/></g>
<g><path style="opacity:0.877" fill="#fff" d="M 558.5,280.5 C 560.078,281.066 561.412,282.066 562.5,283.5C 570.581,295.75 579.248,307.583 588.5,319C 583.64,324.289 578.473,329.122 573,333.5C 567.731,329.904 562.731,325.904 558,321.5C 549.854,327.482 541.354,332.815 532.5,337.5C 531.417,336.635 531.251,335.635 532,334.5C 541.631,316.904 550.464,298.904 558.5,280.5 Z"/></g>
<g><path style="opacity:0.919" fill="#fff" d="M 266.5,293.5 C 269.833,293.5 273.167,293.5 276.5,293.5C 275.927,303.566 274.76,313.566 273,323.5C 271.525,326.921 269.859,330.254 268,333.5C 251.809,342.259 235.809,351.259 220,360.5C 215.482,358.492 210.982,356.325 206.5,354C 203.516,350.736 200.349,347.57 197,344.5C 195.85,342.246 195.516,339.913 196,337.5C 198.19,335.612 200.023,333.445 201.5,331C 223.229,318.473 244.896,305.973 266.5,293.5 Z"/></g>
<g><path style="opacity:0.822" fill="#fff" d="M 354.5,293.5 C 359.623,296.784 364.623,300.284 369.5,304C 373.647,308.478 378.147,312.645 383,316.5C 383.83,322.528 383.664,328.528 382.5,334.5C 371.527,325.035 360.36,315.702 349,306.5C 348.333,305.167 348.333,303.833 349,302.5C 351.844,300.148 353.678,297.148 354.5,293.5 Z"/></g>
<g><path style="opacity:0.826" fill="#fff" d="M 642.5,293.5 C 645.822,296.923 648.822,300.756 651.5,305C 639.687,314.645 628.02,324.479 616.5,334.5C 615.167,328.5 615.167,322.5 616.5,316.5C 624.954,308.588 633.621,300.921 642.5,293.5 Z"/></g>
<g><path style="opacity:0.919" fill="#fff" d="M 722.5,293.5 C 726.182,293.335 729.848,293.501 733.5,294C 754.833,306.333 776.167,318.667 797.5,331C 798.977,333.445 800.81,335.612 803,337.5C 803.484,339.913 803.15,342.246 802,344.5C 796.075,352.299 788.408,357.633 779,360.5C 763.646,351.663 748.146,342.996 732.5,334.5C 729.501,331.349 727.334,327.682 726,323.5C 724.372,313.548 723.205,303.548 722.5,293.5 Z"/></g>
<g><path style="opacity:0.705" fill="#fff" d="M 329.5,303.5 C 330.5,303.5 331.5,303.5 332.5,303.5C 332.173,308.214 332.507,312.88 333.5,317.5C 342.516,326.682 351.349,336.016 360,345.5C 360.712,347.695 360.045,349.362 358,350.5C 345.751,340.923 334.084,330.59 323,319.5C 322.333,317.833 322.333,316.167 323,314.5C 326.201,311.429 328.368,307.762 329.5,303.5 Z"/></g>
<g><path style="opacity:0.675" fill="#fff" d="M 665.5,303.5 C 666.833,303.5 668.167,303.5 669.5,303.5C 670.617,307.726 672.784,311.393 676,314.5C 676.667,316.167 676.667,317.833 676,319.5C 664.942,330.561 653.275,340.894 641,350.5C 638.681,349.591 638.014,347.925 639,345.5C 648.122,336.589 656.789,327.255 665,317.5C 665.499,312.845 665.666,308.179 665.5,303.5 Z"/></g>
<g><path style="opacity:0.791" fill="#fff" d="M 405.5,317.5 C 406.117,317.611 406.617,317.944 407,318.5C 410.01,330.413 412.51,342.413 414.5,354.5C 413.325,354.281 412.325,354.614 411.5,355.5C 418.131,369.621 424.964,383.621 432,397.5C 435.913,402.711 440.746,406.877 446.5,410C 450.393,413.39 453.727,417.223 456.5,421.5C 457.5,450.826 457.833,480.159 457.5,509.5C 456.167,509.5 454.833,509.5 453.5,509.5C 452.113,504.396 450.446,499.396 448.5,494.5C 447.5,494.5 446.5,494.5 445.5,494.5C 443.444,487.936 440.277,481.936 436,476.5C 435.667,460.167 435.333,443.833 435,427.5C 434.336,422.836 433.169,418.336 431.5,414C 432.5,413.667 433.5,413.333 434.5,413C 422.002,401.502 409.836,389.669 398,377.5C 396.783,363.171 396.116,348.838 396,334.5C 400.221,329.388 403.388,323.721 405.5,317.5 Z M 437.5,417.5 C 441.441,419.772 444.775,422.772 447.5,426.5C 448.666,446.825 448.833,467.158 448,487.5C 446.284,484.36 444.951,481.027 444,477.5C 443,460.514 442.334,443.514 442,426.5C 441.001,423.168 439.501,420.168 437.5,417.5 Z"/></g>
<g><path style="opacity:0.792" fill="#fff" d="M 586.5,354.5 C 585.414,354.38 584.747,353.713 584.5,352.5C 586.286,340.718 588.619,329.052 591.5,317.5C 592.5,317.5 593.5,317.5 594.5,317.5C 595.708,323.917 598.542,329.583 603,334.5C 602.885,349.12 602.218,363.453 601,377.5C 589.191,389.642 577.024,401.475 564.5,413C 565.5,413.333 566.5,413.667 567.5,414C 565.703,418.646 564.536,423.48 564,428.5C 563.667,444.5 563.333,460.5 563,476.5C 558.723,481.936 555.556,487.936 553.5,494.5C 552.5,494.5 551.5,494.5 550.5,494.5C 548.971,499.25 547.137,503.916 545,508.5C 543.989,509.337 542.822,509.67 541.5,509.5C 541.394,480.567 541.56,451.567 542,422.5C 544.71,417.78 548.21,413.613 552.5,410C 557.286,406.882 561.786,403.382 566,399.5C 570.853,390.614 575.52,381.614 580,372.5C 582.67,366.655 584.836,360.655 586.5,354.5 Z M 586.5,354.5 C 586.783,353.711 587.283,353.044 588,352.5C 588.528,353.816 588.028,354.483 586.5,354.5 Z M 562.5,415.5 C 562.5,416.833 561.833,417.5 560.5,417.5C 560.833,416.5 561.5,415.833 562.5,415.5 Z M 560.5,417.5 C 559.438,420.516 558.271,423.516 557,426.5C 556.722,443.517 556.055,460.517 555,477.5C 553.835,480.911 552.502,484.244 551,487.5C 550.333,467.167 550.333,446.833 551,426.5C 553.983,423.351 557.15,420.351 560.5,417.5 Z"/></g>
<g><path style="opacity:0.864" fill="#fff" d="M 439.5,328.5 C 441.308,328.491 442.975,328.991 444.5,330C 453.589,336.021 462.756,341.854 472,347.5C 474.726,353.284 477.726,358.951 481,364.5C 487,373.833 493,383.167 499,392.5C 502.911,387.678 506.578,382.678 510,377.5C 516.109,368.284 521.442,358.617 526,348.5C 535.479,342.364 544.979,336.197 554.5,330C 556.044,328.813 557.711,328.48 559.5,329C 563.315,333.145 567.481,336.978 572,340.5C 574.467,343.734 575.633,347.401 575.5,351.5C 572.234,351.371 569.234,350.371 566.5,348.5C 555.792,352.672 545.125,356.838 534.5,361C 527.73,366.282 521.563,372.116 516,378.5C 515.535,379.931 514.701,381.097 513.5,382C 515.392,386.058 517.059,390.225 518.5,394.5C 516.877,400.998 515.71,407.665 515,414.5C 509.422,423.657 504.922,433.324 501.5,443.5C 500.167,443.5 498.833,443.5 497.5,443.5C 496.633,440.092 495.467,436.758 494,433.5C 485.541,421.907 481.041,408.907 480.5,394.5C 481.262,389.928 482.929,385.761 485.5,382C 478.115,372.288 469.115,364.288 458.5,358C 449.498,355.662 440.831,352.495 432.5,348.5C 425.278,353.317 422.778,351.651 425,343.5C 430.037,338.631 434.87,333.631 439.5,328.5 Z"/></g>
<g><path style="opacity:0.779" fill="#fff" d="M 744.5,348.5 C 748.232,349.305 751.732,350.638 755,352.5C 760.531,409.699 749.031,463.032 720.5,512.5C 718.078,509.582 716.411,506.249 715.5,502.5C 741.145,453.932 750.812,402.598 744.5,348.5 Z"/></g>
<g><path style="opacity:0.795" fill="#fff" d="M 251.5,351.5 C 252.693,351.97 253.36,352.97 253.5,354.5C 248.311,407.055 258.311,456.555 283.5,503C 281.353,505.661 279.353,508.494 277.5,511.5C 253.765,471.689 242.098,428.522 242.5,382C 242.574,372.813 242.908,363.646 243.5,354.5C 246.542,354.267 249.208,353.267 251.5,351.5 Z"/></g>
<g><path style="opacity:0.927" fill="#fff" d="M 182.5,352.5 C 183.873,352.343 185.207,352.51 186.5,353C 195.028,359.093 203.694,364.926 212.5,370.5C 213.833,380.5 213.833,390.5 212.5,400.5C 203.663,406.419 194.663,412.085 185.5,417.5C 176.056,411.696 166.556,406.03 157,400.5C 156.333,389.833 156.333,379.167 157,368.5C 165.694,363.272 174.194,357.939 182.5,352.5 Z"/></g>
<g><path style="opacity:0.927" fill="#fff" d="M 812.5,352.5 C 814.199,352.34 815.866,352.506 817.5,353C 825.413,358.542 833.58,363.708 842,368.5C 842.832,379.182 842.666,389.849 841.5,400.5C 831.889,406.747 822.389,412.414 813,417.5C 804.108,411.968 795.274,406.301 786.5,400.5C 785.167,390.5 785.167,380.5 786.5,370.5C 795.581,364.971 804.248,358.971 812.5,352.5 Z"/></g>
<g><path style="opacity:0.662" fill="#fff" d="M 374.5,354.5 C 375.922,354.709 377.255,355.209 378.5,356C 380.979,359.647 383.979,362.813 387.5,365.5C 388.127,368.702 388.794,371.869 389.5,375C 387.831,375.122 386.165,374.788 384.5,374C 381.299,370.464 377.799,367.297 374,364.5C 373.457,361.132 373.624,357.799 374.5,354.5 Z"/></g>
<g><path style="opacity:0.657" fill="#fff" d="M 621.5,354.5 C 622.5,354.5 623.5,354.5 624.5,354.5C 625.376,357.799 625.543,361.132 625,364.5C 621.201,367.297 617.701,370.464 614.5,374C 612.835,374.788 611.169,375.122 609.5,375C 610.131,371.471 610.964,367.971 612,364.5C 616.046,361.955 619.213,358.622 621.5,354.5 Z"/></g>
<g><path style="opacity:0.545" fill="#fff" d="M 334.5,357.5 C 335.675,357.281 336.675,357.614 337.5,358.5C 341.925,363.649 346.592,368.649 351.5,373.5C 352.429,374.689 352.762,376.022 352.5,377.5C 345.523,373.244 338.69,368.578 332,363.5C 332.074,361.235 332.907,359.235 334.5,357.5 Z"/></g>
<g><path style="opacity:0.526" fill="#fff" d="M 661.5,357.5 C 663.638,357.703 665.305,358.703 666.5,360.5C 667.583,361.365 667.749,362.365 667,363.5C 660.588,368.289 654.088,372.956 647.5,377.5C 646.386,376.277 646.219,374.944 647,373.5C 649.628,371.874 651.961,369.874 654,367.5C 656.741,364.271 659.241,360.938 661.5,357.5 Z"/></g>
<g><path style="opacity:0.713" fill="#fff" d="M 320.5,360.5 C 321.5,360.5 322.5,360.5 323.5,360.5C 323.98,363.005 324.98,365.338 326.5,367.5C 322.372,371.8 318.372,376.3 314.5,381C 325.64,392.14 336.806,403.306 348,414.5C 348.591,415.483 348.257,416.15 347,416.5C 331.367,405.267 316.2,393.433 301.5,381C 308.183,374.448 314.516,367.615 320.5,360.5 Z"/></g>
<g><path style="opacity:0.76" fill="#fff" d="M 440.5,360.5 C 454.161,362.414 465.661,368.414 475,378.5C 475.483,379.448 475.649,380.448 475.5,381.5C 463.353,381.73 452.853,377.73 444,369.5C 441.713,366.928 440.547,363.928 440.5,360.5 Z"/></g>
<g><path style="opacity:0.756" fill="#fff" d="M 554.5,360.5 C 555.833,360.5 557.167,360.5 558.5,360.5C 557.864,365.31 555.697,369.31 552,372.5C 543.505,378.609 534.005,381.609 523.5,381.5C 525.503,376.654 528.836,372.82 533.5,370C 540.167,365.951 547.167,362.784 554.5,360.5 Z"/></g>
<g><path style="opacity:0.707" fill="#fff" d="M 675.5,360.5 C 683.869,366.029 691.202,372.862 697.5,381C 682.761,393.444 667.594,405.278 652,416.5C 650.743,416.15 650.409,415.483 651,414.5C 662.194,403.306 673.36,392.14 684.5,381C 680.5,376.333 676.5,371.667 672.5,367C 673.793,364.948 674.793,362.781 675.5,360.5 Z"/></g>
<g><path style="opacity:0.856" fill="#fff" d="M 424.5,365.5 C 432.577,372.383 441.244,378.55 450.5,384C 456.725,386.075 463.059,387.742 469.5,389C 473.1,390.266 475.267,392.766 476,396.5C 476.208,405.368 476.708,414.202 477.5,423C 477.167,423.5 476.833,424 476.5,424.5C 462.552,415.727 448.719,406.727 435,397.5C 428.57,387.922 425.07,377.255 424.5,365.5 Z"/></g>
<g><path style="opacity:0.862" fill="#fff" d="M 572.5,365.5 C 573.586,365.62 574.253,366.287 574.5,367.5C 573.671,378.563 570.171,388.563 564,397.5C 550.252,406.624 536.419,415.624 522.5,424.5C 522.167,424.167 521.833,423.833 521.5,423.5C 522.306,414.548 522.806,405.548 523,396.5C 523.444,392.483 525.611,389.983 529.5,389C 546.75,386.321 561.083,378.488 572.5,365.5 Z"/></g>
<g><path style="opacity:0.78" fill="#fff" d="M 214.5,367.5 C 217.455,368.159 220.455,368.492 223.5,368.5C 222.569,481.863 270.235,567.363 366.5,625C 448.466,666.666 531.799,669.333 616.5,633C 702.5,589.605 754.5,520.271 772.5,425C 774.867,407.579 775.867,390.079 775.5,372.5C 778.518,372.296 781.518,371.963 784.5,371.5C 785.35,467.277 749.35,545.777 676.5,607C 601.835,662.802 518.835,680.135 427.5,659C 329.279,630.108 262.779,567.608 228,471.5C 217.338,437.722 212.838,403.055 214.5,367.5 Z M 562.5,415.5 C 562.5,416.833 561.833,417.5 560.5,417.5C 560.833,416.5 561.5,415.833 562.5,415.5 Z M 437.5,417.5 C 439.501,420.168 441.001,423.168 442,426.5C 442.334,443.514 443,460.514 444,477.5C 444.951,481.027 446.284,484.36 448,487.5C 448.833,467.158 448.666,446.825 447.5,426.5C 444.775,422.772 441.441,419.772 437.5,417.5 Z M 560.5,417.5 C 557.15,420.351 553.983,423.351 551,426.5C 550.333,446.833 550.333,467.167 551,487.5C 552.502,484.244 553.835,480.911 555,477.5C 556.055,460.517 556.722,443.517 557,426.5C 558.271,423.516 559.438,420.516 560.5,417.5 Z"/></g>
<g><path style="opacity:0.642" fill="#fff" d="M 340.5,384.5 C 347.975,386.952 355.642,388.618 363.5,389.5C 363.152,393.557 362.486,397.557 361.5,401.5C 355.197,398.387 349.53,394.221 344.5,389C 341.553,388.888 340.22,387.388 340.5,384.5 Z"/></g>
<g><path style="opacity:0.652" fill="#fff" d="M 654.5,384.5 C 655.833,384.5 657.167,384.5 658.5,384.5C 658.719,385.675 658.386,386.675 657.5,387.5C 651.167,392.167 644.833,396.833 638.5,401.5C 636.741,397.707 635.741,393.707 635.5,389.5C 642.307,389.216 648.641,387.55 654.5,384.5 Z"/></g>
<g><path style="opacity:0.688" fill="#fff" d="M 393.5,387.5 C 394.675,387.281 395.675,387.614 396.5,388.5C 401.2,396.372 405.7,404.372 410,412.5C 413.188,420.592 415.688,428.925 417.5,437.5C 417.167,438.167 416.833,438.833 416.5,439.5C 409.697,427.233 402.863,414.9 396,402.5C 393.223,399.788 391.056,396.621 389.5,393C 390.967,391.218 392.301,389.385 393.5,387.5 Z"/></g>
<g><path style="opacity:0.69" fill="#fff" d="M 602.5,387.5 C 606.525,388.274 608.691,390.607 609,394.5C 599.116,408.942 590.283,423.942 582.5,439.5C 582.167,438.833 581.833,438.167 581.5,437.5C 583.489,430.543 585.323,423.543 587,416.5C 592.197,406.767 597.364,397.101 602.5,387.5 Z"/></g>
<g><path style="opacity:0.641" fill="#fff" d="M 369.5,401.5 C 370.552,401.351 371.552,401.517 372.5,402C 376.57,404.947 380.07,408.447 383,412.5C 383.236,414.3 382.736,415.966 381.5,417.5C 377.894,415.397 374.727,412.731 372,409.5C 369.933,412.109 367.766,414.609 365.5,417C 364.551,417.617 363.718,417.451 363,416.5C 361.813,414.956 361.48,413.289 362,411.5C 364.717,408.29 367.217,404.956 369.5,401.5 Z"/></g>
<g><path style="opacity:0.655" fill="#fff" d="M 626.5,401.5 C 628.76,402.139 630.76,403.306 632.5,405C 633.63,407.428 635.13,409.595 637,411.5C 637.558,414.054 636.725,416.054 634.5,417.5C 631.506,415.338 629.006,412.672 627,409.5C 623.926,412.286 620.759,414.952 617.5,417.5C 616.264,415.966 615.764,414.3 616,412.5C 619.532,408.684 623.032,405.018 626.5,401.5 Z"/></g>
<g><path style="opacity:0.896" fill="#fff" d="M 366.5,432.5 C 367.833,432.5 369.167,432.5 370.5,432.5C 370.491,434.308 370.991,435.975 372,437.5C 377.364,445.365 382.53,453.365 387.5,461.5C 397.025,479.895 407.025,497.895 417.5,515.5C 416.543,517.918 415.209,520.084 413.5,522C 410.547,524.793 407.213,526.96 403.5,528.5C 395.651,513.815 387.484,499.148 379,484.5C 370.274,474.72 360.441,466.22 349.5,459C 347.62,457.29 345.954,455.457 344.5,453.5C 346.082,450.576 348.082,447.909 350.5,445.5C 355.877,441.113 361.21,436.78 366.5,432.5 Z"/></g>
<g><path style="opacity:0.897" fill="#fff" d="M 628.5,432.5 C 629.873,432.343 631.207,432.51 632.5,433C 640.241,437.738 647.074,443.572 653,450.5C 653.638,451.609 654.138,452.775 654.5,454C 643.059,462.937 632.059,472.437 621.5,482.5C 612.198,496.769 604.198,511.769 597.5,527.5C 596.277,528.614 594.944,528.781 593.5,528C 588.167,525.333 584.167,521.333 581.5,516C 594.927,489.64 609.761,464.14 626,439.5C 627.411,437.35 628.245,435.016 628.5,432.5 Z"/></g>
<g><path style="opacity:0.939" fill="#fff" d="M 478.5,440.5 C 480.089,439.379 481.756,439.546 483.5,441C 488.638,446.726 493.972,452.226 499.5,457.5C 505.167,451.667 510.833,445.833 516.5,440C 519.492,438.912 520.492,439.579 519.5,442C 520.872,448.086 521.705,454.253 522,460.5C 526.918,463.082 529.918,467.082 531,472.5C 532.111,482.39 531.111,492.057 528,501.5C 519.013,525.12 510.18,548.786 501.5,572.5C 500.167,572.5 498.833,572.5 497.5,572.5C 489.394,550.241 481.061,528.075 472.5,506C 467.16,493.054 466.326,479.888 470,466.5C 472.039,464.126 474.372,462.126 477,460.5C 477.406,454.268 478.24,448.101 479.5,442C 479.43,441.235 479.097,440.735 478.5,440.5 Z"/></g>
<g><path style="opacity:0.692" fill="#fff" d="M 408.5,477.5 C 410.089,476.379 411.756,476.546 413.5,478C 427.35,492.349 441.016,506.849 454.5,521.5C 455.833,522.833 455.833,524.167 454.5,525.5C 445.115,518.94 435.615,512.607 426,506.5C 420.644,496.438 414.81,486.771 408.5,477.5 Z"/></g>
<g><path style="opacity:0.688" fill="#fff" d="M 586.5,476.5 C 587.978,476.238 589.311,476.571 590.5,477.5C 584.151,486.867 578.317,496.534 573,506.5C 563.354,512.803 553.687,519.136 544,525.5C 542.812,524.437 542.312,523.103 542.5,521.5C 544.39,521.703 545.89,521.037 547,519.5C 548.333,517.5 549.667,515.5 551,513.5C 562.682,501.064 574.516,488.731 586.5,476.5 Z"/></g>
<g><path style="opacity:0.889" fill="#fff" d="M 360.5,479.5 C 363.807,479.063 366.807,479.73 369.5,481.5C 376.348,491.201 382.681,501.201 388.5,511.5C 387.637,516.201 385.637,520.368 382.5,524C 376.234,525.236 370.068,526.736 364,528.5C 362.668,545.521 362.834,562.521 364.5,579.5C 364.167,580.167 363.833,580.833 363.5,581.5C 363.84,585.425 365.174,588.925 367.5,592C 375.286,597.451 382.786,603.285 390,609.5C 390.667,613.5 390.667,617.5 390,621.5C 389.439,622.022 388.772,622.355 388,622.5C 376.201,616.364 365.867,608.364 357,598.5C 348.68,573.942 344.346,548.609 344,522.5C 340.167,520 336.333,517.5 332.5,515C 328.418,508.823 323.084,504.323 316.5,501.5C 307.573,503.315 298.573,504.648 289.5,505.5C 286.019,504.153 284.352,501.486 284.5,497.5C 309.854,491.16 335.187,485.16 360.5,479.5 Z"/></g>
<g><path style="opacity:0.89" fill="#fff" d="M 630.5,479.5 C 658.804,484.094 686.804,490.094 714.5,497.5C 714.648,501.486 712.981,504.153 709.5,505.5C 699.48,504.126 689.48,502.959 679.5,502C 674.833,505.333 670.833,509.333 667.5,514C 663.596,517.203 659.43,520.037 655,522.5C 654.654,548.608 650.32,573.942 642,598.5C 633.084,608.426 622.751,616.426 611,622.5C 610.228,622.355 609.561,622.022 609,621.5C 608.133,617.044 608.466,612.711 610,608.5C 617.214,602.285 624.714,596.451 632.5,591C 634.662,588.214 635.329,585.214 634.5,582C 636.247,564.179 636.413,546.345 635,528.5C 628.932,526.736 622.766,525.236 616.5,524C 613.162,520.336 611.162,516.002 610.5,511C 617.282,500.609 623.949,490.109 630.5,479.5 Z"/></g>
<g><path style="opacity:0.918" fill="#fff" d="M 312.5,503.5 C 314.484,503.383 316.15,504.05 317.5,505.5C 324.905,513.982 332.072,522.649 339,531.5C 339.333,544.833 339.667,558.167 340,571.5C 342.789,578.031 345.289,584.698 347.5,591.5C 347,591.833 346.5,592.167 346,592.5C 327.308,576.804 309.641,560.138 293,542.5C 291.809,535.065 290.475,527.732 289,520.5C 288.333,517.167 288.333,513.833 289,510.5C 290.324,509.12 291.657,508.786 293,509.5C 299.555,507.407 306.055,505.407 312.5,503.5 Z"/></g>
<g><path style="opacity:0.92" fill="#fff" d="M 682.5,503.5 C 692.129,505.585 701.463,507.585 710.5,509.5C 709.328,520.549 707.828,531.549 706,542.5C 689.333,560.166 671.666,576.832 653,592.5C 652.5,592.167 652,591.833 651.5,591.5C 653.706,584.713 656.206,578.046 659,571.5C 659.333,558.5 659.667,545.5 660,532.5C 660.561,530.275 661.561,528.275 663,526.5C 668.111,520.601 673.444,514.934 679,509.5C 680.421,507.595 681.588,505.595 682.5,503.5 Z"/></g>
<g><path style="opacity:0.926" fill="#fff" d="M 421.5,515.5 C 435.588,525.722 449.088,537.055 462,549.5C 462.333,552.833 462.667,556.167 463,559.5C 472.357,567.858 481.357,576.524 490,585.5C 490.181,595.075 489.681,604.575 488.5,614C 481.699,616.784 474.699,618.451 467.5,619C 450.489,602.625 437.323,583.458 428,561.5C 424.194,546.387 422.028,531.053 421.5,515.5 Z"/></g>
<g><path style="opacity:0.903" fill="#fff" d="M 574.5,515.5 C 575.675,515.281 576.675,515.614 577.5,516.5C 578.3,542.87 571.3,566.87 556.5,588.5C 556.667,588.833 556.833,589.167 557,589.5C 561.692,587.278 566.525,585.278 571.5,583.5C 572.783,579.909 574.783,576.909 577.5,574.5C 580.833,575.5 584.167,576.5 587.5,577.5C 590.722,576.031 594.056,575.531 597.5,576C 590.649,578.791 590.982,580.791 598.5,582C 600.64,585.121 602.64,588.287 604.5,591.5C 601.392,599.371 598.058,607.038 594.5,614.5C 584.835,614.122 575.169,613.789 565.5,613.5C 565.461,608.201 565.128,603.201 564.5,598.5C 565.673,595.168 566.506,591.835 567,588.5C 562.971,590.042 558.804,591.208 554.5,592C 551.048,595.734 548.215,599.9 546,604.5C 541.221,609.279 536.387,614.113 531.5,619C 524.153,617.836 516.82,616.336 509.5,614.5C 509.564,605.088 509.064,595.755 508,586.5C 517.69,577.809 527.023,568.809 536,559.5C 536.333,556.167 536.667,552.833 537,549.5C 549.819,538.165 562.319,526.832 574.5,515.5 Z"/></g>
<g><path style="opacity:0.876" fill="#fff" d="M 395.5,538.5 C 399.539,537.66 402.539,538.993 404.5,542.5C 408.799,551.602 413.466,560.435 418.5,569C 411.096,570.455 403.762,572.122 396.5,574C 393.324,578.006 389.991,581.84 386.5,585.5C 382.883,583.058 379.383,580.391 376,577.5C 374.958,574.196 376.125,572.029 379.5,571C 377.919,570.293 376.419,569.46 375,568.5C 373.642,560.503 373.475,552.503 374.5,544.5C 381.615,542.486 388.615,540.486 395.5,538.5 Z"/></g>
<g><path style="opacity:0.877" fill="#fff" d="M 597.5,538.5 C 606.672,539.667 615.672,541.667 624.5,544.5C 625.6,552.508 625.434,560.508 624,568.5C 622.581,569.46 621.081,570.293 619.5,571C 621.122,572.295 622.455,573.795 623.5,575.5C 620.456,579.545 616.789,582.879 612.5,585.5C 609.009,581.84 605.676,578.006 602.5,574C 595.602,572.072 588.602,570.572 581.5,569.5C 582.304,564.882 583.971,560.549 586.5,556.5C 590.698,550.76 594.365,544.76 597.5,538.5 Z"/></g>
<g><path style="opacity:0.89" fill="#fff" d="M 419.5,574.5 C 420.978,574.238 422.311,574.571 423.5,575.5C 426.76,582.356 430.26,589.023 434,595.5C 434.572,601.304 434.405,607.304 433.5,613.5C 424.16,613.912 414.827,614.079 405.5,614C 401.285,607.072 397.452,599.905 394,592.5C 393.833,592 393.667,591.5 393.5,591C 396.308,588.393 398.641,585.393 400.5,582C 406.717,579.037 413.05,576.537 419.5,574.5 Z"/></g>
<g><path style="opacity:0.85" fill="#fff" d="M 425.5,627.5 C 474.5,634.157 523.5,634.157 572.5,627.5C 576.696,629.056 579.696,631.722 581.5,635.5C 577.042,635.93 572.876,637.264 569,639.5C 568.667,639.167 568.333,638.833 568,638.5C 557.959,642.435 548.125,645.935 538.5,649C 512.5,649.667 486.5,649.667 460.5,649C 446.281,644.031 431.948,639.531 417.5,635.5C 417.281,634.325 417.614,633.325 418.5,632.5C 421.077,631.057 423.41,629.39 425.5,627.5 Z"/></g>

</svg>
