<?xml version="1.0" encoding="UTF-8"?>
<!DOCTYPE svg PUBLIC "-//W3C//DTD SVG 1.1//EN" "http://www.w3.org/Graphics/SVG/1.1/DTD/svg11.dtd">
<svg xmlns="http://www.w3.org/2000/svg" version="1.1" width="1000px" height="1000px" style="shape-rendering:geometricPrecision; text-rendering:geometricPrecision; image-rendering:optimizeQuality; fill-rule:evenodd; clip-rule:evenodd" xmlns:xlink="http://www.w3.org/1999/xlink">
<g><path style="opacity:0.97" fill="#fefffe" d="M 403.5,46.5 C 405.028,46.5173 405.528,47.184 405,48.5C 380.714,81.3637 361.714,117.03 348,155.5C 343.33,172.197 338.663,188.864 334,205.5C 333.685,216.51 333.185,227.51 332.5,238.5C 332.761,245.213 334.428,251.546 337.5,257.5C 357.725,274.526 378.225,291.193 399,307.5C 404.505,321.199 410.671,334.533 417.5,347.5C 405.222,364.38 392.222,380.713 378.5,396.5C 371.539,391.704 365.039,386.37 359,380.5C 343.939,363.438 329.606,345.771 316,327.5C 307.695,318.526 299.361,309.526 291,300.5C 283.205,286.451 275.038,272.617 266.5,259C 270.083,258.542 273.083,257.042 275.5,254.5C 274.456,252.232 274.289,249.899 275,247.5C 279.346,227.093 284.012,206.759 289,186.5C 292.966,178.52 296.966,170.52 301,162.5C 315.891,141.942 332.558,122.942 351,105.5C 367.281,84.721 384.781,65.0544 403.5,46.5 Z"/></g>
<g><path style="opacity:0.97" fill="#fefffe" d="M 594.5,46.5 C 612.926,62.7587 629.426,80.7587 644,100.5C 653.331,110.83 662.997,120.83 673,130.5C 681.697,141.191 690.363,151.858 699,162.5C 703,171.167 707,179.833 711,188.5C 715.941,209.147 720.774,229.814 725.5,250.5C 725.24,252.187 724.573,253.687 723.5,255C 726.279,256.722 729.279,257.889 732.5,258.5C 724.622,272.933 716.455,287.267 708,301.5C 700.667,309.167 693.333,316.833 686,324.5C 672.015,342.481 657.682,360.148 643,377.5C 636.639,384.252 629.805,390.418 622.5,396C 621.551,396.617 620.718,396.451 620,395.5C 606.904,380.408 594.571,364.741 583,348.5C 588.051,335.047 593.718,321.713 600,308.5C 620.124,292.712 639.957,276.545 659.5,260C 663.314,254.575 665.981,248.575 667.5,242C 666.896,229.826 666.063,217.659 665,205.5C 653.038,148.18 629.705,96.1795 595,49.5C 594.517,48.552 594.351,47.552 594.5,46.5 Z"/></g>
<g><path style="opacity:0.861" fill="#fefffe" d="M 650.5,99.5 C 678.233,118.393 705.566,137.893 732.5,158C 743.027,168.694 753.027,179.861 762.5,191.5C 762.167,191.833 761.833,192.167 761.5,192.5C 735.85,173.688 709.517,155.855 682.5,139C 672.284,127.623 662.284,116.123 652.5,104.5C 651.05,103.15 650.383,101.484 650.5,99.5 Z"/></g>
<g><path style="opacity:0.865" fill="#fefffe" d="M 347.5,100.5 C 348.376,100.369 349.043,100.702 349.5,101.5C 338.353,114.482 327.019,127.315 315.5,140C 289.061,156.634 263.228,174.134 238,192.5C 246.817,179.316 257.317,167.149 269.5,156C 295.039,136.741 321.039,118.241 347.5,100.5 Z"/></g>
<g><path style="opacity:0.925" fill="#fefffe" d="M 469.5,113.5 C 473.375,113.085 477.042,113.585 480.5,115C 479.299,115.903 478.465,117.069 478,118.5C 477.344,124.574 476.177,130.408 474.5,136C 462.512,138.11 450.512,139.777 438.5,141C 437,139.5 435.5,138 434,136.5C 415.903,141.02 397.736,145.354 379.5,149.5C 377.321,148.243 375.321,146.743 373.5,145C 370.774,144.818 368.107,144.318 365.5,143.5C 367.934,140.777 370.601,138.277 373.5,136C 379.679,133.273 386.013,130.94 392.5,129C 418.084,122.741 443.751,117.574 469.5,113.5 Z"/></g>
<g><path style="opacity:0.92" fill="#fefffe" d="M 520.5,113.5 C 549.56,116.399 578.227,121.566 606.5,129C 617.667,130.538 627,135.372 634.5,143.5C 631.553,144.321 628.553,144.821 625.5,145C 623.946,146.892 622.112,148.392 620,149.5C 601.93,145.316 583.93,140.982 566,136.5C 563.775,138.942 561.108,140.609 558,141.5C 546.86,139.504 535.693,137.671 524.5,136C 522.746,131.13 521.913,125.963 522,120.5C 520.171,118.267 519.671,115.933 520.5,113.5 Z"/></g>
<g><path style="opacity:0.829" fill="#fefffe" d="M 477.5,148.5 C 478.5,148.5 479.5,148.5 480.5,148.5C 481.138,151.763 481.138,154.929 480.5,158C 448.727,178.775 417.227,199.942 386,221.5C 383.682,235.191 381.182,248.858 378.5,262.5C 377.167,246.833 377.167,231.167 378.5,215.5C 411.739,193.391 444.739,171.058 477.5,148.5 Z"/></g>
<g><path style="opacity:0.817" fill="#fefffe" d="M 519.5,148.5 C 554.165,170.261 588.332,192.928 622,216.5C 622.833,231.844 622.666,247.178 621.5,262.5C 618.427,248.914 615.76,235.248 613.5,221.5C 581.344,199.836 549.344,178.002 517.5,156C 518.249,153.503 518.916,151.003 519.5,148.5 Z"/></g>
<g><path style="opacity:0.915" fill="#fefffe" d="M 237.5,239.5 C 234.993,235.163 231.993,231.163 228.5,227.5C 247.661,206.502 268.828,187.835 292,171.5C 289.357,181.16 286.357,190.826 283,200.5C 268.55,212.983 254.383,225.816 240.5,239C 239.552,239.483 238.552,239.649 237.5,239.5 Z"/></g>
<g><path style="opacity:0.91" fill="#fefffe" d="M 764.5,236.5 C 763.5,236.833 762.833,237.5 762.5,238.5C 761.198,239.807 759.865,239.807 758.5,238.5C 744.508,225.677 730.341,213.01 716,200.5C 714.43,193.206 712.096,186.206 709,179.5C 708.26,176.824 707.927,174.158 708,171.5C 730.48,187.969 751.48,206.302 771,226.5C 769.152,229.886 766.985,233.219 764.5,236.5 Z"/></g>
<g><path style="opacity:0.957" fill="#fefffe" d="M 498.5,185.5 C 499.5,185.5 500.5,185.5 501.5,185.5C 502.031,188.237 502.864,190.904 504,193.5C 512.37,210.239 520.703,226.906 529,243.5C 529.667,275.167 529.667,306.833 529,338.5C 519.714,350.123 510.047,361.456 500,372.5C 489.984,361.817 480.318,350.817 471,339.5C 470.333,307.167 470.333,274.833 471,242.5C 480.275,223.484 489.442,204.484 498.5,185.5 Z"/></g>
<g><path style="opacity:0.966" fill="#fefffe" d="M 237.5,239.5 C 244.173,246.506 250.84,253.506 257.5,260.5C 258.844,270.042 261.511,279.209 265.5,288C 256.67,298.329 247.67,308.496 238.5,318.5C 217.526,299.862 196.526,281.195 175.5,262.5C 174.289,261.126 173.289,259.626 172.5,258C 173.472,255.889 174.305,253.722 175,251.5C 186.677,238.325 198.51,225.325 210.5,212.5C 219.134,221.8 228.134,230.8 237.5,239.5 Z"/></g>
<g><path style="opacity:0.966" fill="#fefffe" d="M 762.5,238.5 C 763.833,238.5 764.5,237.833 764.5,236.5C 772.786,228.549 781.12,220.549 789.5,212.5C 800.885,225.961 812.719,238.961 825,251.5C 825.743,254.265 826.41,256.931 827,259.5C 805.316,279.352 783.483,299.018 761.5,318.5C 751.617,309.117 742.617,298.95 734.5,288C 735.642,282.263 737.475,276.763 740,271.5C 740.333,268.167 740.667,264.833 741,261.5C 748.788,254.218 755.955,246.552 762.5,238.5 Z"/></g>
<g><path style="opacity:0.91" fill="#fefffe" d="M 422.5,220.5 C 425.144,222.153 427.144,224.487 428.5,227.5C 425.192,230.729 422.025,234.062 419,237.5C 419.471,243.462 419.471,249.462 419,255.5C 414.926,260.57 411.259,265.904 408,271.5C 407.333,257.5 407.333,243.5 408,229.5C 413.006,226.637 417.839,223.637 422.5,220.5 Z"/></g>
<g><path style="opacity:0.857" fill="#fefffe" d="M 575.5,220.5 C 580.799,223.444 586.133,226.444 591.5,229.5C 592.833,243.5 592.833,257.5 591.5,271.5C 587.431,265.706 583.597,259.706 580,253.5C 580.456,247.87 580.456,242.204 580,236.5C 576.783,233.62 573.95,230.453 571.5,227C 572.713,224.738 574.046,222.571 575.5,220.5 Z"/></g>
<g><path style="opacity:0.955" fill="#fefffe" d="M 422.5,258.5 C 423.376,258.369 424.043,258.702 424.5,259.5C 434.55,281.818 443.716,304.484 452,327.5C 451.626,333.65 450.626,339.65 449,345.5C 458.308,358.308 467.808,370.975 477.5,383.5C 482.016,385.924 486.683,388.09 491.5,390C 493.707,392.705 496.374,394.871 499.5,396.5C 502.601,394.902 505.268,392.735 507.5,390C 513.643,388.346 519.143,385.512 524,381.5C 533.167,369 542.333,356.5 551.5,344C 547.889,337.976 546.722,331.476 548,324.5C 556.548,302.196 565.881,280.196 576,258.5C 584.403,269.808 590.57,282.308 594.5,296C 590.539,309.082 584.872,321.249 577.5,332.5C 575.874,330.218 573.874,328.718 571.5,328C 571.957,328.414 572.291,328.914 572.5,329.5C 569.908,345.437 565.408,360.77 559,375.5C 546.157,398.517 533.824,421.85 522,445.5C 514.58,457.995 507.08,470.329 499.5,482.5C 478.964,447.782 459.464,412.449 441,376.5C 433.75,360.973 429.083,344.64 427,327.5C 425.333,329.167 423.667,330.833 422,332.5C 413.604,320.714 408.27,307.714 406,293.5C 409.919,281 415.419,269.333 422.5,258.5 Z"/></g>
<g><path style="opacity:0.898" fill="#fefffe" d="M 167.5,295.5 C 172.041,297.21 174.708,300.543 175.5,305.5C 163.512,335.151 153.512,365.484 145.5,396.5C 141.379,398.644 137.212,400.644 133,402.5C 138.421,364.741 149.921,329.074 167.5,295.5 Z"/></g>
<g><path style="opacity:0.848" fill="#fefffe" d="M 266.5,295.5 C 268.074,295.937 269.241,296.937 270,298.5C 270.557,300.615 271.391,302.615 272.5,304.5C 265.167,312.833 257.833,321.167 250.5,329.5C 249.167,327.5 247.5,325.833 245.5,324.5C 244.417,323.635 244.251,322.635 245,321.5C 252.891,313.355 260.057,304.689 266.5,295.5 Z"/></g>
<g><path style="opacity:0.828" fill="#fefffe" d="M 731.5,295.5 C 739.098,304.27 746.931,312.937 755,321.5C 753.935,324.606 751.935,327.273 749,329.5C 741.627,321.796 734.627,313.796 728,305.5C 727.729,301.699 728.896,298.366 731.5,295.5 Z"/></g>
<g><path style="opacity:0.896" fill="#fefffe" d="M 829.5,295.5 C 834.131,300.356 837.964,306.023 841,312.5C 853.107,341.634 861.607,371.634 866.5,402.5C 862.619,400.393 858.619,398.559 854.5,397C 846.3,367.067 836.467,337.567 825,308.5C 824.022,303.266 825.522,298.933 829.5,295.5 Z"/></g>
<g><path style="opacity:0.919" fill="#fefffe" d="M 200.5,302.5 C 206.791,306.791 212.124,312.124 216.5,318.5C 213.636,324.866 210.136,330.866 206,336.5C 201.15,346.704 196.483,357.037 192,367.5C 185.4,371.105 179.066,375.105 173,379.5C 173.005,373.795 173.671,368.128 175,362.5C 179.958,349.588 184.625,336.588 189,323.5C 193.301,316.769 197.135,309.769 200.5,302.5 Z"/></g>
<g><path style="opacity:0.923" fill="#fefffe" d="M 797.5,302.5 C 798.376,302.369 799.043,302.702 799.5,303.5C 802.864,310.763 806.698,317.763 811,324.5C 815.821,338.118 820.487,351.785 825,365.5C 826.118,370.157 826.785,374.824 827,379.5C 820.163,375.416 813.496,371.082 807,366.5C 800.719,349.605 792.552,333.605 782.5,318.5C 787.578,313.094 792.578,307.761 797.5,302.5 Z"/></g>
<g><path style="opacity:0.821" fill="#fefffe" d="M 275.5,313.5 C 276.693,313.97 277.36,314.97 277.5,316.5C 277.158,318.867 276.658,321.2 276,323.5C 272.31,329.56 268.143,335.227 263.5,340.5C 260.216,338.883 257.549,336.55 255.5,333.5C 259.469,329.572 262.969,325.239 266,320.5C 268.79,317.535 271.957,315.202 275.5,313.5 Z"/></g>
<g><path style="opacity:0.844" fill="#fefffe" d="M 722.5,313.5 C 730.715,317.712 737.382,323.712 742.5,331.5C 743.833,332.833 743.833,334.167 742.5,335.5C 740.833,337 739.167,338.5 737.5,340C 736.551,340.617 735.718,340.451 735,339.5C 731.089,334.678 727.422,329.678 724,324.5C 722.663,320.974 722.163,317.308 722.5,313.5 Z"/></g>
<g><path style="opacity:0.887" fill="#fefffe" d="M 797.5,409.5 C 798.063,413.971 799.23,418.304 801,422.5C 801.866,441.52 803.033,460.687 804.5,480C 803.647,504.811 800.647,529.311 795.5,553.5C 802.289,554.101 808.789,553.434 815,551.5C 819.767,526.427 822.1,501.094 822,475.5C 826.635,478.234 831.468,480.567 836.5,482.5C 839.223,489.939 840.056,497.606 839,505.5C 837.852,521.469 836.018,537.302 833.5,553C 839.416,553.807 845.25,553.641 851,552.5C 853.125,541.791 855.458,531.124 858,520.5C 862.682,525.015 867.182,529.681 871.5,534.5C 869.797,540.749 868.464,547.083 867.5,553.5C 911.5,553.5 955.5,553.5 999.5,553.5C 999.5,554.167 999.5,554.833 999.5,555.5C 955.499,555.333 911.499,555.5 867.5,556C 864.402,566.979 861.902,578.145 860,589.5C 850.603,625.553 835.103,658.553 813.5,688.5C 809.849,691.651 806.349,694.984 803,698.5C 776.236,736.934 744.903,771.267 709,801.5C 702.99,800.573 696.99,799.573 691,798.5C 690.667,798.833 690.333,799.167 690,799.5C 689.251,798.365 689.417,797.365 690.5,796.5C 715.72,773.11 741.387,750.277 767.5,728C 778.609,715.551 789.776,703.051 801,690.5C 802,687.167 803,683.833 804,680.5C 817.199,656.902 828.866,632.568 839,607.5C 844.634,590.562 848.467,573.229 850.5,555.5C 844.575,555.192 838.741,555.525 833,556.5C 826.027,589.772 814.193,621.106 797.5,650.5C 796.672,651.415 795.672,652.081 794.5,652.5C 793.671,647.533 793.171,642.533 793,637.5C 788.958,635.232 787.625,631.898 789,627.5C 801.143,604.963 809.31,580.963 813.5,555.5C 807.167,555.5 800.833,555.5 794.5,555.5C 793.63,561.646 792.13,567.646 790,573.5C 785.335,586.155 780.668,598.822 776,611.5C 774.365,615.777 772.365,619.777 770,623.5C 765.307,622.231 760.807,620.565 756.5,618.5C 766.195,597.916 773.361,576.582 778,554.5C 743.905,555.33 709.738,555.83 675.5,556C 686.702,562.437 696.035,570.937 703.5,581.5C 692.31,590.524 680.976,599.358 669.5,608C 665.298,611.867 661.465,616.033 658,620.5C 646.389,639.678 635.722,659.345 626,679.5C 620.141,676.484 614.975,672.484 610.5,667.5C 607.662,663.171 608.496,659.504 613,656.5C 618.766,643.525 625.099,630.859 632,618.5C 644.249,597.667 656.749,577 669.5,556.5C 650.509,555.334 631.509,555.167 612.5,556C 611.15,557.718 609.983,559.552 609,561.5C 608.349,559.765 608.515,558.098 609.5,556.5C 600.525,555.502 591.525,555.168 582.5,555.5C 582.667,573.509 582.834,591.509 583,609.5C 574.261,623.913 565.928,638.58 558,653.5C 556.918,620.836 556.085,588.17 555.5,555.5C 538.82,555.167 522.153,555.501 505.5,556.5C 503.594,559.64 502.26,562.973 501.5,566.5C 500.325,566.719 499.325,566.386 498.5,565.5C 496.961,562.254 495.294,559.088 493.5,556C 476.837,555.5 460.17,555.333 443.5,555.5C 443.172,588.173 442.505,620.839 441.5,653.5C 439.244,648.652 436.744,643.985 434,639.5C 433.5,611.502 433.333,583.502 433.5,555.5C 430.5,555.5 427.5,555.5 424.5,555.5C 424.333,571.503 424.5,587.503 425,603.5C 425.782,611.178 427.782,618.511 431,625.5C 431.673,628.521 432.007,631.521 432,634.5C 426.499,626.836 421.499,618.836 417,610.5C 416.5,592.17 416.333,573.836 416.5,555.5C 407.494,555.334 398.494,555.5 389.5,556C 391.245,557.692 391.578,559.525 390.5,561.5C 389.684,559.713 388.684,558.046 387.5,556.5C 368.175,555.334 348.842,555.167 329.5,556C 344.667,581.167 359.833,606.333 375,631.5C 378.333,638.833 381.667,646.167 385,653.5C 386.513,656.524 388.513,659.191 391,661.5C 391.418,663.788 390.751,665.788 389,667.5C 384.577,672.26 379.577,676.26 374,679.5C 367.562,668.061 361.562,656.395 356,644.5C 349.675,632.515 342.175,621.349 333.5,611C 321.333,601.5 309.167,592 297,582.5C 296.333,581.5 296.333,580.5 297,579.5C 299.237,577.353 301.237,575.02 303,572.5C 309.337,566.411 316.17,560.911 323.5,556C 289.495,555.167 255.495,555.333 221.5,556.5C 226.513,577.569 233.513,597.902 242.5,617.5C 242.182,618.647 241.516,619.481 240.5,620C 236.859,621.269 233.192,622.436 229.5,623.5C 228.201,622.91 227.368,621.91 227,620.5C 220.894,603.311 214.561,586.311 208,569.5C 206.842,565.203 205.842,560.869 205,556.5C 198.582,555.357 192.082,555.19 185.5,556C 190.236,580.825 198.403,604.325 210,626.5C 211.622,631.407 210.288,635.074 206,637.5C 205.829,642.533 205.329,647.533 204.5,652.5C 200.942,649.065 198.109,645.065 196,640.5C 182.772,613.371 172.939,585.037 166.5,555.5C 160.491,555.334 154.491,555.501 148.5,556C 152.509,580.268 159.009,603.768 168,626.5C 176.623,644.379 185.623,662.045 195,679.5C 196.584,683.425 197.917,687.425 199,691.5C 210.104,704.274 221.604,716.774 233.5,729C 259.324,751.491 284.824,774.325 310,797.5C 310.309,799.513 309.642,799.846 308,798.5C 302.201,799.539 296.368,800.539 290.5,801.5C 254.945,772.114 224.112,738.447 198,700.5C 185.81,689.087 175.81,676.087 168,661.5C 150.657,628.176 138.823,592.843 132.5,555.5C 88.1667,555.5 43.8333,555.5 -0.5,555.5C -0.5,554.833 -0.5,554.167 -0.5,553.5C 43.8383,553.833 88.1717,553.5 132.5,552.5C 130.937,546.737 129.604,540.904 128.5,535C 131.953,529.38 136.286,524.547 141.5,520.5C 143.834,531.171 146.167,541.838 148.5,552.5C 154.128,553.495 159.794,553.829 165.5,553.5C 164.056,539.841 162.556,526.174 161,512.5C 160.333,504.167 160.333,495.833 161,487.5C 161.273,485.899 161.773,484.399 162.5,483C 167.412,480.628 172.245,478.128 177,475.5C 177.958,492.502 178.958,509.502 180,526.5C 181.349,535.555 182.849,544.555 184.5,553.5C 191.175,553.666 197.842,553.5 204.5,553C 199.532,535.23 196.699,517.063 196,498.5C 195.122,473.793 195.789,449.126 198,424.5C 199.352,421.28 200.186,417.947 200.5,414.5C 205.385,399.31 210.218,383.977 215,368.5C 219.176,359.663 223.176,350.663 227,341.5C 230.364,336.634 233.531,331.634 236.5,326.5C 240.387,330.22 243.72,334.387 246.5,339C 237.08,354.578 229.58,371.078 224,388.5C 218.594,409.603 214.26,430.936 211,452.5C 208.157,477.732 209.49,502.732 215,527.5C 216.703,535.979 218.87,544.312 221.5,552.5C 276.167,553.833 330.833,553.833 385.5,552.5C 377.023,535.543 367.523,519.21 357,503.5C 356.333,502.5 356.333,501.5 357,500.5C 359.018,498.65 360.851,496.65 362.5,494.5C 369.28,505.349 375.78,516.349 382,527.5C 384.813,536.102 387.313,544.768 389.5,553.5C 398.5,553.5 407.5,553.5 416.5,553.5C 415.492,546.456 414.159,539.456 412.5,532.5C 412.833,531.5 413.167,530.5 413.5,529.5C 415.053,530.439 416.387,531.606 417.5,533C 419.53,537.561 421.697,542.061 424,546.5C 424.497,548.81 424.663,551.143 424.5,553.5C 427.5,553.5 430.5,553.5 433.5,553.5C 433.664,550.813 433.497,548.146 433,545.5C 410.695,524.195 388.695,502.529 367,480.5C 365.441,461.861 364.441,443.194 364,424.5C 370.027,418.632 374.194,411.632 376.5,403.5C 382.251,418.815 385.584,434.481 386.5,450.5C 385.52,449.019 384.353,447.685 383,446.5C 383.679,450.883 385.013,455.216 387,459.5C 394.728,475.956 402.728,492.289 411,508.5C 416.595,515.097 423.095,520.597 430.5,525C 434.702,528.867 438.535,533.033 442,537.5C 443.339,542.736 443.839,548.07 443.5,553.5C 459.5,553.5 475.5,553.5 491.5,553.5C 487.972,545.442 484.139,537.442 480,529.5C 477.337,518.222 476.67,506.889 478,495.5C 479.318,492.523 480.818,489.69 482.5,487C 479.65,484.145 477.15,480.978 475,477.5C 468.158,470.659 460.991,464.159 453.5,458C 439.744,452.637 425.911,447.47 412,442.5C 408.32,444.049 404.487,444.716 400.5,444.5C 400.259,441.206 401.092,438.206 403,435.5C 409.64,429.194 416.307,422.861 423,416.5C 435.556,426.052 448.889,434.385 463,441.5C 465.565,445.51 467.565,449.843 469,454.5C 478.194,468.23 486.86,482.23 495,496.5C 496.351,498.019 497.851,499.352 499.5,500.5C 501.483,499.018 503.316,497.351 505,495.5C 515.755,477.595 526.255,459.595 536.5,441.5C 550.617,433.788 564.284,425.621 577.5,417C 584,423.5 590.5,430 597,436.5C 597.735,438.871 598.568,441.205 599.5,443.5C 598.333,443.833 597.167,444.167 596,444.5C 592.512,443.55 589.012,443.05 585.5,443C 572.5,448 559.5,453 546.5,458C 541.789,462.38 536.789,466.38 531.5,470C 526.646,475.353 521.979,480.853 517.5,486.5C 522.312,495.924 523.812,505.924 522,516.5C 521.128,521.195 520.128,525.861 519,530.5C 514.793,537.77 510.96,545.27 507.5,553C 523.497,553.5 539.497,553.667 555.5,553.5C 554.498,546.848 555.832,540.515 559.5,534.5C 568.826,526.009 578.326,517.676 588,509.5C 598.888,489.334 608.722,468.668 617.5,447.5C 617.333,446.833 617.167,446.167 617,445.5C 615.907,447.349 614.574,449.016 613,450.5C 613.652,434.274 616.985,418.607 623,403.5C 624.246,406.361 625.246,409.361 626,412.5C 629.692,417.025 633.192,421.692 636.5,426.5C 635.149,444.128 633.982,461.795 633,479.5C 611.386,501.447 589.386,523.113 567,544.5C 566.502,547.482 566.335,550.482 566.5,553.5C 569.5,553.5 572.5,553.5 575.5,553.5C 576.463,545.779 578.963,538.445 583,531.5C 584.888,529.369 586.388,529.369 587.5,531.5C 585.81,538.862 584.144,546.195 582.5,553.5C 591.751,553.182 600.917,553.515 610,554.5C 612.163,545.016 614.83,535.683 618,526.5C 623.903,515.592 630.236,504.926 637,494.5C 639.35,496.683 641.517,499.016 643.5,501.5C 632.294,517.933 622.294,535.1 613.5,553C 668.499,553.5 723.499,553.667 778.5,553.5C 783.425,534.792 786.925,515.792 789,496.5C 790.614,448.862 782.28,402.862 764,358.5C 759.967,351.962 756.134,345.296 752.5,338.5C 755.814,334.352 759.314,330.352 763,326.5C 764.608,329.772 766.608,332.772 769,335.5C 774.238,344.873 778.904,354.539 783,364.5C 788.153,379.477 792.987,394.477 797.5,409.5 Z M 566.5,555.5 C 569.5,555.5 572.5,555.5 575.5,555.5C 575.719,573.521 575.219,591.521 574,609.5C 571.376,617.08 569.043,624.747 567,632.5C 566.5,606.835 566.333,581.169 566.5,555.5 Z"/></g>
<g><path style="opacity:0.882" fill="#fefffe" d="M 277.5,336.5 C 283.498,342.852 288.831,349.852 293.5,357.5C 291.154,360.871 288.821,364.204 286.5,367.5C 279.833,361.5 273.5,355.167 267.5,348.5C 270.48,344.189 273.813,340.189 277.5,336.5 Z"/></g>
<g><path style="opacity:0.869" fill="#fefffe" d="M 720.5,336.5 C 725.097,339.764 729.097,343.764 732.5,348.5C 726.471,355.363 719.971,361.696 713,367.5C 710.454,364.616 708.287,361.449 706.5,358C 711.011,350.67 715.678,343.504 720.5,336.5 Z"/></g>
<g><path style="opacity:0.935" fill="#fefffe" d="M 419.5,354.5 C 420.496,354.414 421.329,354.748 422,355.5C 433.516,379.198 445.016,402.864 456.5,426.5C 445.099,420.4 433.599,413.734 422,406.5C 415.936,412.4 409.436,417.734 402.5,422.5C 395.988,416.822 389.988,410.655 384.5,404C 396.803,387.873 408.47,371.373 419.5,354.5 Z"/></g>
<g><path style="opacity:0.937" fill="#fefffe" d="M 578.5,354.5 C 590.137,369.65 601.637,384.983 613,400.5C 614.187,402.044 614.52,403.711 614,405.5C 608.65,411.684 602.816,417.351 596.5,422.5C 589.908,417.286 583.408,411.953 577,406.5C 566,413.5 555,420.5 544,427.5C 544.019,424.756 544.686,422.089 546,419.5C 556.366,397.549 567.199,375.882 578.5,354.5 Z"/></g>
<g><path style="opacity:0.958" fill="#fefffe" d="M 200.5,414.5 C 199.318,417.803 197.318,420.636 194.5,423C 173.98,434.866 153.48,446.699 133,458.5C 127.578,455.539 122.078,452.706 116.5,450C 112,445.833 107.5,441.667 103,437.5C 102.767,435.22 101.934,433.22 100.5,431.5C 102.975,427.858 105.642,424.358 108.5,421C 137.167,404.333 165.833,387.667 194.5,371C 198.486,370.501 202.486,370.334 206.5,370.5C 204.933,385.235 202.933,399.901 200.5,414.5 Z"/></g>
<g><path style="opacity:0.958" fill="#fefffe" d="M 797.5,409.5 C 796.049,396.794 794.382,384.127 792.5,371.5C 796.459,370.34 800.459,370.173 804.5,371C 834.413,387.87 863.913,405.37 893,423.5C 894.961,425.928 896.794,428.428 898.5,431C 897.794,433.62 896.794,436.12 895.5,438.5C 890.982,442.852 886.316,447.019 881.5,451C 876.221,452.973 871.221,455.473 866.5,458.5C 845.996,446.414 825.33,434.58 804.5,423C 801.464,418.758 799.13,414.258 797.5,409.5 Z"/></g>
<g><path style="opacity:0.894" fill="#fefffe" d="M 309.5,371.5 C 322.299,380.758 334.632,390.758 346.5,401.5C 346.833,405 347.167,408.5 347.5,412C 347.634,416.014 347.134,419.847 346,423.5C 331.46,410.624 316.626,398.124 301.5,386C 304.571,381.356 307.237,376.523 309.5,371.5 Z"/></g>
<g><path style="opacity:0.903" fill="#fefffe" d="M 687.5,371.5 C 689.624,372.031 691.124,373.365 692,375.5C 693.153,378.47 694.82,381.137 697,383.5C 697.667,384.5 697.667,385.5 697,386.5C 682.148,398.596 667.481,410.929 653,423.5C 652.333,416.167 652.333,408.833 653,401.5C 664.693,391.635 676.193,381.635 687.5,371.5 Z"/></g>
<g><path style="opacity:0.848" fill="#fefffe" d="M 278.5,383.5 C 279.167,389.346 279.833,395.346 280.5,401.5C 291.817,413.984 303.317,426.317 315,438.5C 315.495,440.473 315.662,442.473 315.5,444.5C 314.448,444.649 313.448,444.483 312.5,444C 298.35,431.351 284.35,418.518 270.5,405.5C 269.438,402.897 269.272,400.23 270,397.5C 273.107,392.944 275.94,388.277 278.5,383.5 Z"/></g>
<g><path style="opacity:0.831" fill="#fefffe" d="M 719.5,383.5 C 722.803,387.651 725.97,391.985 729,396.5C 729.667,399.5 729.667,402.5 729,405.5C 714.892,417.938 701.059,430.771 687.5,444C 686.552,444.483 685.552,444.649 684.5,444.5C 684.292,442.08 684.626,439.747 685.5,437.5C 696.455,425.376 707.622,413.376 719,401.5C 719.499,395.509 719.666,389.509 719.5,383.5 Z"/></g>
<g><path style="opacity:0.958" fill="#fefffe" d="M 83.5,448.5 C 84.8734,448.343 86.2068,448.51 87.5,449C 99.1667,456.833 110.833,464.667 122.5,472.5C 123.833,485.167 123.833,497.833 122.5,510.5C 111.068,517.964 99.5682,525.298 88,532.5C 74.8508,525.594 62.1842,517.927 50,509.5C 49.3333,496.5 49.3333,483.5 50,470.5C 61.1462,463.019 72.3129,455.685 83.5,448.5 Z"/></g>
<g><path style="opacity:0.966" fill="#fefffe" d="M 911.5,448.5 C 912.873,448.343 914.207,448.51 915.5,449C 926.95,455.47 938.116,462.303 949,469.5C 949.833,483.179 949.666,496.846 948.5,510.5C 936.294,518.101 923.961,525.434 911.5,532.5C 899.784,525.556 888.284,518.222 877,510.5C 876.167,497.82 876.334,485.154 877.5,472.5C 889.152,464.831 900.485,456.831 911.5,448.5 Z"/></g>
<g><path style="opacity:0.786" fill="#fefffe" d="M 336.5,451.5 C 342.772,455.937 348.272,461.27 353,467.5C 353.667,470.833 353.667,474.167 353,477.5C 346.708,472.877 340.708,467.877 335,462.5C 335.269,458.874 335.769,455.207 336.5,451.5 Z"/></g>
<g><path style="opacity:0.811" fill="#fefffe" d="M 661.5,451.5 C 664.298,455.072 664.964,459.072 663.5,463.5C 657.871,467.794 652.537,472.461 647.5,477.5C 646.341,473.878 646.175,470.211 647,466.5C 652.008,461.598 656.841,456.598 661.5,451.5 Z"/></g>
<g><path style="opacity:0.733" fill="#fefffe" d="M 284.5,455.5 C 291.096,462.433 297.763,469.433 304.5,476.5C 305.833,477.5 305.833,478.5 304.5,479.5C 297.09,473.712 289.59,468.045 282,462.5C 281.333,461.167 281.333,459.833 282,458.5C 283.045,457.627 283.878,456.627 284.5,455.5 Z"/></g>
<g><path style="opacity:0.712" fill="#fefffe" d="M 713.5,455.5 C 715.024,456.174 716.358,457.174 717.5,458.5C 718.614,459.723 718.781,461.056 718,462.5C 710.255,468.289 702.422,473.956 694.5,479.5C 693.479,478.998 693.312,478.332 694,477.5C 700.742,470.323 707.242,462.99 713.5,455.5 Z"/></g>
<g><path style="opacity:0.835" fill="#fefffe" d="M 265.5,459.5 C 268.01,461.328 269.676,463.828 270.5,467C 266.422,473.583 261.755,479.749 256.5,485.5C 271.194,500.527 285.861,515.527 300.5,530.5C 300.167,530.833 299.833,531.167 299.5,531.5C 279.251,516.88 259.585,501.547 240.5,485.5C 248.855,476.813 257.188,468.146 265.5,459.5 Z"/></g>
<g><path style="opacity:0.864" fill="#fefffe" d="M 422.5,459.5 C 439.231,462.449 453.731,469.782 466,481.5C 468.328,483.816 467.995,485.482 465,486.5C 450.622,484.492 437.955,478.825 427,469.5C 424.676,466.52 423.176,463.187 422.5,459.5 Z"/></g>
<g><path style="opacity:0.862" fill="#fefffe" d="M 571.5,459.5 C 573.604,459.201 575.604,459.534 577.5,460.5C 575.114,466.376 571.447,471.209 566.5,475C 556.489,481.226 545.655,485.059 534,486.5C 530.899,485.291 530.732,483.625 533.5,481.5C 544.503,471.135 557.17,463.802 571.5,459.5 Z"/></g>
<g><path style="opacity:0.834" fill="#fefffe" d="M 731.5,459.5 C 741.353,467.344 750.686,476.01 759.5,485.5C 739.833,500.833 720.167,516.167 700.5,531.5C 699.479,530.998 699.312,530.332 700,529.5C 714.527,514.64 729.027,499.807 743.5,485C 738.342,479.339 733.342,473.506 728.5,467.5C 729.578,464.793 730.578,462.126 731.5,459.5 Z"/></g>
<g><path style="opacity:0.935" fill="#fefffe" d="M 401.5,467.5 C 401.897,466.475 402.563,466.308 403.5,467C 413.451,475.973 424.118,483.973 435.5,491C 443.799,493.127 452.132,495.127 460.5,497C 464.49,498.99 466.99,502.157 468,506.5C 468.376,518.244 468.71,529.911 469,541.5C 452.833,531.333 436.667,521.167 420.5,511C 415.195,506.701 411.028,501.534 408,495.5C 406.567,485.844 404.4,476.511 401.5,467.5 Z"/></g>
<g><path style="opacity:0.933" fill="#fefffe" d="M 596.5,466.5 C 597.043,466.56 597.376,466.893 597.5,467.5C 595.665,475.845 593.832,484.179 592,492.5C 589.546,499.241 585.713,505.075 580.5,510C 564.565,519.605 548.899,529.605 533.5,540C 532.552,540.483 531.552,540.649 530.5,540.5C 530.667,528.488 531.167,516.488 532,504.5C 533.781,499.676 537.281,496.842 542.5,496C 549.614,494.805 556.614,493.138 563.5,491C 568.996,487.084 574.663,483.418 580.5,480C 585.731,475.26 591.064,470.76 596.5,466.5 Z"/></g>
<g><path style="opacity:0.793" fill="#fefffe" d="M 291.5,491.5 C 291.56,490.957 291.893,490.624 292.5,490.5C 301.868,494.122 311.535,496.622 321.5,498C 320.009,502.079 318.676,506.246 317.5,510.5C 317.167,510.833 316.833,511.167 316.5,511.5C 307.875,505.044 299.542,498.377 291.5,491.5 Z"/></g>
<g><path style="opacity:0.784" fill="#fefffe" d="M 706.5,490.5 C 707.043,490.56 707.376,490.893 707.5,491.5C 699.768,498.896 691.435,505.563 682.5,511.5C 680.499,506.654 679.332,501.654 679,496.5C 679.561,497.022 680.228,497.355 681,497.5C 689.838,496.001 698.338,493.668 706.5,490.5 Z"/></g>
<g><path style="opacity:0.78" fill="#fefffe" d="M 330.5,512.5 C 336.575,517.352 341.909,522.852 346.5,529C 346.713,531.456 345.713,532.456 343.5,532C 339.981,528.646 336.314,525.48 332.5,522.5C 329.5,525.667 326.5,528.833 323.5,532C 319.818,531.532 318.651,529.365 320,525.5C 323.713,521.292 327.213,516.959 330.5,512.5 Z"/></g>
<g><path style="opacity:0.773" fill="#fefffe" d="M 667.5,512.5 C 669.017,512.511 670.184,513.177 671,514.5C 672.608,518.043 674.942,521.043 678,523.5C 681.567,527.399 681.067,530.232 676.5,532C 673.344,528.678 670.011,525.512 666.5,522.5C 662.792,526.21 658.792,529.543 654.5,532.5C 652.876,531.131 652.376,529.464 653,527.5C 658.037,522.631 662.87,517.631 667.5,512.5 Z"/></g>
<g><path style="opacity:0.97" fill="#fefffe" d="M 474.5,563.5 C 483.755,570.419 492.088,578.419 499.5,587.5C 507.156,579.011 515.323,571.011 524,563.5C 525.117,564.949 525.784,566.616 526,568.5C 526.781,575.867 527.781,583.2 529,590.5C 531.371,593.206 534.037,595.539 537,597.5C 541.984,607.739 542.984,618.405 540,629.5C 539.206,632.471 538.539,635.471 538,638.5C 530.621,657.966 523.621,677.633 517,697.5C 511.758,711.206 505.925,724.54 499.5,737.5C 484.645,703.125 471.478,668.125 460,632.5C 458.866,624.836 458.2,617.17 458,609.5C 458.881,605.624 460.214,601.958 462,598.5C 465.016,595.651 467.85,592.651 470.5,589.5C 471.965,580.843 473.298,572.177 474.5,563.5 Z"/></g>
<g><path style="opacity:0.809" fill="#fefffe" d="M 382.5,611.5 C 403.671,631.171 423.671,652.005 442.5,674C 429.468,666.882 416.634,659.048 404,650.5C 396.13,637.82 388.963,624.82 382.5,611.5 Z"/></g>
<g><path style="opacity:0.82" fill="#fefffe" d="M 615.5,611.5 C 616.497,611.47 617.164,611.97 617.5,613C 610.331,625.182 603.165,637.349 596,649.5C 583.586,657.957 571.086,666.291 558.5,674.5C 557.479,673.998 557.312,673.332 558,672.5C 576.273,652.226 595.273,632.559 615,613.5C 615.464,612.906 615.631,612.239 615.5,611.5 Z"/></g>
<g><path style="opacity:0.948" fill="#fefffe" d="M 321.5,615.5 C 323.827,615.247 325.827,615.914 327.5,617.5C 336.732,630.138 345.065,643.305 352.5,657C 351.626,662.287 349.96,667.287 347.5,672C 340.641,673.922 333.641,675.255 326.5,676C 322.81,676.741 320.644,678.908 320,682.5C 318.923,708.497 319.923,734.164 323,759.5C 333.401,768.717 344.068,777.717 355,786.5C 355.667,791.167 355.667,795.833 355,800.5C 351.245,801.409 347.745,800.575 344.5,798C 335.878,791.713 327.545,785.047 319.5,778C 316.567,775.736 314.4,772.902 313,769.5C 302.486,737.735 296.819,705.069 296,671.5C 283.931,663.432 273.097,653.932 263.5,643C 250.414,645.018 237.248,646.851 224,648.5C 222.893,648.415 221.893,648.081 221,647.5C 219.659,644.978 218.826,642.311 218.5,639.5C 252.828,630.971 287.162,622.971 321.5,615.5 Z"/></g>
<g><path style="opacity:0.945" fill="#fefffe" d="M 673.5,615.5 C 709.963,621.95 745.963,630.283 781.5,640.5C 780.305,642.751 779.305,645.085 778.5,647.5C 777.5,647.833 776.5,648.167 775.5,648.5C 762.431,646.811 749.431,644.978 736.5,643C 730.35,647.983 724.684,653.483 719.5,659.5C 714.476,663.691 709.31,667.691 704,671.5C 702.499,701.715 697.832,731.382 690,760.5C 688.333,764.833 686.667,769.167 685,773.5C 674.47,783.176 663.303,792.01 651.5,800C 648.998,801.432 646.498,801.598 644,800.5C 643.333,795.833 643.333,791.167 644,786.5C 654.85,778.073 665.517,769.406 676,760.5C 676.471,758.754 677.138,757.087 678,755.5C 678.317,739.913 679.15,724.413 680.5,709C 680.461,699.229 679.794,689.062 678.5,678.5C 676.459,677.764 674.459,676.931 672.5,676C 665.757,675.16 659.091,673.994 652.5,672.5C 649.669,667.694 647.669,662.528 646.5,657C 653.716,646.067 660.55,634.901 667,623.5C 669.379,620.959 671.546,618.293 673.5,615.5 Z"/></g>
<g><path style="opacity:0.961" fill="#fefffe" d="M 256.5,647.5 C 267.853,658.355 278.353,670.022 288,682.5C 288.459,700.508 289.125,718.508 290,736.5C 292.355,743.899 295.021,751.232 298,758.5C 298.667,760.167 298.667,761.833 298,763.5C 274.011,742.511 251.011,720.511 229,697.5C 226.837,683.541 225.004,669.541 223.5,655.5C 234.722,653.277 245.722,650.61 256.5,647.5 Z"/></g>
<g><path style="opacity:0.964" fill="#fefffe" d="M 741.5,647.5 C 753.207,650.343 764.874,653.343 776.5,656.5C 774.338,669.767 772.504,683.101 771,696.5C 748.682,719.816 725.349,742.15 701,763.5C 703.371,754.06 706.371,744.727 710,735.5C 710.04,717.434 710.706,699.434 712,681.5C 722.072,670.27 731.905,658.936 741.5,647.5 Z"/></g>
<g><path style="opacity:0.96" fill="#fefffe" d="M 398.5,663.5 C 401.116,664.48 403.449,665.98 405.5,668C 420.036,681.538 434.869,694.705 450,707.5C 450.333,711.833 450.667,716.167 451,720.5C 463.251,731.749 475.251,743.415 487,755.5C 487.279,767.811 486.779,779.811 485.5,791.5C 476.553,794.154 467.553,796.321 458.5,798C 435.609,775.686 418.109,749.853 406,720.5C 400.91,701.86 398.41,682.86 398.5,663.5 Z"/></g>
<g><path style="opacity:0.96" fill="#fefffe" d="M 599.5,663.5 C 600.748,664.334 601.415,665.667 601.5,667.5C 600.516,676.486 599.683,685.486 599,694.5C 597.011,702.765 595.345,711.099 594,719.5C 581.791,749.393 563.957,775.559 540.5,798C 531.75,796.311 523.083,793.978 514.5,791C 512.983,779.716 511.983,768.382 511.5,757C 523.267,745.068 535.267,733.234 547.5,721.5C 548.116,716.849 548.782,712.182 549.5,707.5C 566.212,692.782 582.879,678.115 599.5,663.5 Z"/></g>
<g><path style="opacity:0.944" fill="#fefffe" d="M 368.5,692.5 C 369.496,692.414 370.329,692.748 371,693.5C 378.548,706.168 385.715,719.002 392.5,732C 383.277,733.578 374.11,735.411 365,737.5C 360.572,743.351 355.906,749.017 351,754.5C 346.343,750.343 341.843,746.01 337.5,741.5C 339.69,739.144 341.69,736.644 343.5,734C 341.238,733.358 339.071,732.525 337,731.5C 335.577,721.536 335.244,711.536 336,701.5C 346.949,698.557 357.783,695.557 368.5,692.5 Z"/></g>
<g><path style="opacity:0.94" fill="#fefffe" d="M 628.5,692.5 C 640.282,695.029 651.948,698.029 663.5,701.5C 663.833,703.5 664.167,705.5 664.5,707.5C 663.778,715.835 663.111,724.168 662.5,732.5C 660.146,732.838 657.813,733.338 655.5,734C 657.959,736.446 660.292,738.946 662.5,741.5C 657.833,745.833 653.167,750.167 648.5,754.5C 644.007,749.168 639.673,743.668 635.5,738C 626.273,735.588 616.94,733.755 607.5,732.5C 608.111,729.279 609.278,726.279 611,723.5C 617.364,713.436 623.197,703.103 628.5,692.5 Z"/></g>
<g><path style="opacity:0.948" fill="#fefffe" d="M 396.5,740.5 C 397.675,740.281 398.675,740.614 399.5,741.5C 403.798,750.291 408.298,758.958 413,767.5C 412.931,775.151 412.764,782.818 412.5,790.5C 400.449,790.187 388.449,790.521 376.5,791.5C 371.123,781.71 366.123,771.71 361.5,761.5C 364.457,757.208 367.79,753.208 371.5,749.5C 380.008,746.667 388.341,743.667 396.5,740.5 Z"/></g>
<g><path style="opacity:0.949" fill="#fefffe" d="M 600.5,740.5 C 609.91,743.359 619.243,746.526 628.5,750C 631.899,753.728 634.899,757.728 637.5,762C 633.089,772.067 628.256,781.9 623,791.5C 611.247,790.512 599.414,790.179 587.5,790.5C 586.578,782.843 586.078,775.176 586,767.5C 591.096,758.589 595.93,749.589 600.5,740.5 Z"/></g>
<g><path style="opacity:0.931" fill="#fefffe" d="M 319.5,808.5 C 370.704,838.756 425.871,853.756 485,853.5C 509.665,853.279 534.498,852.113 559.5,850C 602.466,844.623 642.466,830.79 679.5,808.5C 684.706,811.603 690.04,814.436 695.5,817C 670.816,836.51 643.149,850.51 612.5,859C 601.343,862.193 590.01,864.526 578.5,866C 552.207,869.245 525.874,872.078 499.5,874.5C 469.082,871.739 438.748,868.239 408.5,864C 371.737,856.644 338.07,842.311 307.5,821C 306.313,819.981 305.313,818.814 304.5,817.5C 309.729,814.726 314.729,811.726 319.5,808.5 Z"/></g>
<g><path style="opacity:0.929" fill="#fefffe" d="M 401.5,811.5 C 419.194,812.603 436.861,814.103 454.5,816C 500.459,817.825 546.293,816.325 592,811.5C 597.81,811.811 602.644,814.144 606.5,818.5C 587.553,824.76 568.553,830.927 549.5,837C 516.167,837.667 482.833,837.667 449.5,837C 430.907,830.853 412.241,825.02 393.5,819.5C 393.281,818.325 393.614,817.325 394.5,816.5C 397.154,815.164 399.487,813.497 401.5,811.5 Z"/></g>
</svg>
