<?xml version="1.0" encoding="UTF-8"?>
<svg id="Camada_2" data-name="Camada 2" xmlns="http://www.w3.org/2000/svg" viewBox="0 0 1000 1000">
  <defs>
    <style>
      .cls-1 {
        fill: #fff;
      }
    </style>
  </defs>
  <g>
    <polygon class="cls-1" points="596.81 368.3 566.58 327.11 537.25 387.41 565.55 369.93 581.99 383.85 596.81 369.04 596.81 368.3"/>
    <path class="cls-1" d="m526.25,484.22l1.11-28.67,2-4.89s2.44-2.44,6.22-3.33,17.78-3.56,18.44-4.44,14.44-9.26,14.44-9.26l13.78-11.41-5.56,24s-4.89,10-12.22,13.78-22.78,14.67-22.78,14.67l-15.44,9.56Z"/>
    <path class="cls-1" d="m499.71,434.96s25.56-43.33,32.89-59.11c7.33-15.78,16.89-28.89,21.56-43.33,4.67-14.44,6.89-25.33,6.44-28.44s5.33,3.33,5.33,3.33l8.22-15.56,5.11-14.67s-6.44-19.11-10.22-24.44-4.67-6.89-4.67-6.89l-10.22,23.56-9.56,24.89s-4.22,5.33-3.56,13.33c.67,8,3.11,10.67,3.11,10.67l-9.33,12.44-13.11,17.78-3.78,4.44-11.33,4.59-4.44,4.74-2.44.44"/>
    <path class="cls-1" d="m499.66,506.67l16.67-32s2.22-16.89,2.22-22-4.44-13.78-4.44-13.78l9.56-12,15.78-13.11,19.11-7.11,15.56-5.78,6.67,2.22,2.44-.22-1.11-5.78-17.11-16.67-15.33,10.22-14.89,8.89-3.11.67-5.56,11.56-8.67,13.56-13.33,22.22-4.44,4.67"/>
    <path class="cls-1" d="m564.81,417s-3.33,7.89-9,11.22-15.67,7.89-20.89,8.67-6.22.78-6.22.78c0,0-3.22,0,2.89-5.56,6.11-5.56,11.78-8.33,17.78-11.33s13.56-4.78,13.56-4.78h1.89v1Z"/>
    <path class="cls-1" d="m548.81,579.82l-.74-93.09s-.45-6.4,12.96-16.38c13.4-9.98,14.6-12.81,14.6-12.81l14.89-29.79,9.53-21.45,1.04-5.51-5.21,6.26,3.87-23.09,4.62-15.79,2.23,8.34,8.19,10.43-2.53,46.02-20.4,20.14-34.26,33.18-1.79,2.38-.6,78.64-6.4,12.51Z"/>
    <path class="cls-1" d="m499.7,651.29s5.33-11.56,9.33-21.63,10.52-28.59,15.11-41.63c4.59-13.04,8.44-22.81,9.19-28.15s1.48-12.15,1.33-15.56-3.85-10.67-3.85-10.67l-7.26-5.93-1.04-11.41-1.93-11.56-10.81,10.22-9.19,10.07-.89.15"/>
    <path class="cls-1" d="m533.81,702.89l-21.56-6.67-1.56-28.89,31.11-30.22v-10.22l43.33-38s-.22,15.11-1.56,24.22c-1.33,9.11-3.33,16-4.67,22.89s-15.78,31.33-15.78,31.33l-12.67,18.22-16.67,17.33Z"/>
    <path class="cls-1" d="m672.1,518.96l-9.33-10.67-16.89-12.3s-21.48,34.96-21.78,35.41-10.96,18.96-14.67,25.63-4.3,6.81-7.26,13.33-6.22,13.33-7.7,15.41-3.11,1.33-.89,4.59,8.44,8.59,9.33,8.89,4.3,2.07,4.3,2.07c0,0,8.59-18.81,11.41-23.7s5.19-9.63,7.85-14.07,8.44-14.07,12.74-18.37,13.63-11.26,16.59-13.63,7.56-6.52,11.26-9.19,5.04-3.41,5.04-3.41Z"/>
    <path class="cls-1" d="m735.78,575.29l2.45-6.23s-29.13-7.34-33.8-8.45c-4.67-1.11-21.79-5.34-29.8-6.67s-23.35-5.11-25.8-5.34-6.89,7.78-10.45,13.34-12.9,18.9-13.34,20.24,2.89,10.45,4,12.9,16.01,2.89,16.01,2.89l7.56,3.34.89,19.57-1.78,45.15-2,5.78-26.91,21.57v11.34s1.33.44,3.56,0,14.68-10.01,14.68-10.01l14.9-12.68s1.56-.67,7.12-20.24c5.56-19.57,8.75-57.82,8.75-57.82v-8.9s12.82-8.45,15.72-12.01c2.89-3.56,12.01-12.01,12.01-12.01l2.89-1.11,11.34,2.22s6,1.78,8.67,2l13.34,1.11Z"/>
    <polygon class="cls-1" points="733.62 582.67 729.77 616.15 707.55 639.26 670.81 672.44 678.81 649.93 679.1 607.56 680.84 603.41 705.47 575.85 733.62 582.67"/>
    <path class="cls-1" d="m749.81,579.26v-12.89l-4-3.26v-4.74c.22,0,7.63-14.52,11.78-26.37,4.15-11.85,4.15-13.93,8.3-30.52,4.15-16.59,5.33-25.19,6.22-34.07.89-8.89.89-16.3,1.19-24.3s0-13.04,0-13.04l12.44,5.93s1.48,3.85,1.19,14.81-1.78,25.19-1.78,25.19c0,0-1.78,16.89-3.85,26.96s-13.04,40.89-13.04,40.89c0,0-10.67,25.04-14.22,30.22s-4.22,5.19-4.22,5.19Z"/>
    <path class="cls-1" d="m814.47,478.81l-10.67-10.81-10.07,53.19s-4.07,16.15-6.78,23.41-13.82,31.41-16.34,36-9.19,18.67-11.41,21.48-2.22,8.3-2.22,8.74-27.26,30.52-27.26,30.52l-27.56,24.44-41.04,37.11,16.44,1.98,17.33-14.64s35.56-36.44,38.67-40.89c3.11-4.44,23.56-31.56,23.56-31.56l9.35-9.33s13.84-20,20.46-34.22,15.96-40.89,15.96-40.89c0,0,3.56-13.78,4.89-21.78s6.67-32.74,6.67-32.74Z"/>
    <path class="cls-1" d="m811.21,413.89l-50.37-29.04s-6.22.59-8.89-21.63l-2.67-22.22h8.59l73.19,42.37,6.81,8-2.37,5.63-10.67,9.78-13.63,7.11Z"/>
    <path class="cls-1" d="m810.92,366.37l-10.67-4.74s-2.07-13.04-8-30.22-13.33-40.3-16-44.44,4.15-10.07,4.15-10.07l8,13.04s9.19,23.7,10.96,29.93,5.63,17.19,7.11,25.19,4.44,21.33,4.44,21.33Z"/>
    <path class="cls-1" d="m729.73,554.22l-11.56-3.56s10.96-24,15.41-41.78c4.44-17.78,5.04-21.78,8-34.89,2.96-13.11,5.33-26.74,4.44-41.85s.3-23.11-2.07-34.07c-2.37-10.96-10.37-45.33-10.37-45.33,0,0-7.7-20.44-10.37-25.63s-8.3-13.78-8.3-13.78l8-9.78,9.48,15.41,9.48,22.52s5.04,16,7.41,24.89,6.52,21.04,6.52,21.04l1.78,47.26-2.07,33.33-7.41,36.67-18.37,49.56Z"/>
    <polygon class="cls-1" points="719.66 437.67 697.44 416 694.47 422.22 707.07 437.67 669.58 476.3 719.66 437.67"/>
    <polygon class="cls-1" points="675.51 443.11 655.07 459.41 652.1 448.15 658.33 447.85 675.51 443.11"/>
    <polygon class="cls-1" points="684.81 416 681.84 412.89 664.95 431.85 684.81 417.63 684.81 416"/>
    <polygon class="cls-1" points="639.33 417.63 637.55 409.33 624.81 422.22 624.81 430.07 639.33 417.63"/>
    <polygon class="cls-1" points="656.81 402 656.81 398.44 686.81 366.15 686.81 351.93 694.81 364.07 694.81 368.52 658.26 402 656.81 402"/>
    <path class="cls-1" d="m620.99,451.26l-4.74-5.11-13.04,21.85s-3.26,4.44-6.22,16.22c-2.96,11.78-4.5,16.96-4.5,16.96l16.64-31.11,11.85-18.81Z"/>
    <polygon class="cls-1" points="587.07 342.67 570.77 320.59 585.58 287.26 623.81 257.04 638.33 244.3 642.62 231.85 641.14 201.04 629.73 159.7 616.55 126.37 599.66 93.63 580.1 65.33 606.7 92.3 626.33 116.59 645.29 135.7 667.51 163.11 677.73 183.11 684.4 211.41 690.62 238.96 688.99 242.81 696.84 246.22 690.18 256.59 676.55 280.44 657.88 300.3 631.07 334.07 615.95 350.81 602.92 361.48 587.07 342.67"/>
    <polyline class="cls-1" points="499.66 341.48 523.66 312.74 523.66 232.74 499.66 183.26"/>
    <polygon class="cls-1" points="602.81 248.15 602.81 209.33 517.18 151.85 515.7 158.37 597.18 213.41 602.81 248.15"/>
    <polygon class="cls-1" points="421.81 255.56 421.81 221.19 435.14 213.41 438.7 218.81 430.25 227.11 431.58 240.44 421.81 255.56"/>
    <path class="cls-1" d="m479.81,140.3v-10.37l2.07-5.93s4.15-2.96-14.22,0c-18.37,2.96-37.19,6.52-37.19,6.52,0,0-33.04,7.41-38.07,11.56s-6.52,5.93-6.52,5.93h6.81l4.74,3.85,46.81-10.67,4.74,4.15,30.81-5.04Z"/>
    <path class="cls-1" d="m722.25,188.44s-21.56-25.56-28-30-26.67-19.47-28.89-21.18-27.56-19.49-27.56-19.49l-10-6.44,27.78,32,10.22,6.56,18.44,12.11,12.59,8.44,12.74,10,12.67,8Z"/>
    <polygon class="cls-1" points="729.58 218.67 720.92 228.67 693.81 203.78 684.25 196 676.47 172.22 699.58 190.22 710.7 200.44 722.25 210.89 729.58 218.67"/>
    <polygon class="cls-1" points="616.4 671.85 608.4 662.22 585.88 654.52 573.44 677.48 574.47 695.56 604.7 696.3 616.4 671.85"/>
    <polygon class="cls-1" points="625.44 665 614.92 650.93 591.51 646.15 609.88 613.89 639.07 621.3 637.44 646.15 631.07 648.26 636.84 654.78 626.18 665 625.44 665"/>
    <polygon class="cls-1" points="652.84 473.67 643.21 461.19 630.18 473.67 631.07 477.19 641.51 468 650.47 477.19 652.84 473.67"/>
    <polygon class="cls-1" points="776.81 244.32 775.01 239.6 745.53 206.55 704.81 248.16 704.81 254.06 699.2 270.62 721.85 295.67 776.81 245.58 776.81 244.32"/>
    <polygon class="cls-1" points="716.1 299.41 699.51 281.04 696.84 276.89 694.62 280.44 693.36 284.07 711.14 304.37 716.1 299.41"/>
    <polygon class="cls-1" points="706.62 308.81 694.84 295.26 689.14 292.52 690.1 300.07 700.55 314.3 706.62 308.81"/>
    <polygon class="cls-1" points="696.84 321.63 687.66 311.7 675.73 329.19 680.7 337.33 695.95 322.37 696.84 321.63"/>
    <polygon class="cls-1" points="667.29 352.74 660.03 341.48 629.81 367.26 629.81 384.15 667.29 352.74"/>
    <polygon class="cls-1" points="761.58 241.93 731.21 272.3 729.58 246.22 761.58 241.93"/>
    <path class="cls-1" d="m499.81,767.56l62.22-7.11c62.22-7.11,103.11-40.89,103.11-40.89l-13.04-7.11s-49.63,32-107.85,35.56-44.44,2.67-44.44,2.67"/>
    <polygon class="cls-1" points="441.62 559.22 436.06 542.74 434.81 508.08 434.81 489.33 428.67 476.94 425.83 475.35 429.81 492.28 429.47 542.51 442.19 563.65 441.62 559.22"/>
    <polygon class="cls-1" points="450.14 597 429.03 573.89 400.47 545.44 419.14 577.41 450.14 597"/>
    <polyline class="cls-1" points="499.64 735.94 504.27 735.94 539.38 735.94 589.71 719.84 581.36 714.47 534.56 718.94 499.64 719.39"/>
    <polygon class="cls-1" points="799.14 391.33 769.36 375.89 768.14 371.33 802.81 388.11 799.14 391.33"/>
    <polygon class="cls-1" points="777.44 346.67 761.58 337.33 750.47 312.67 740.25 295.85 753.14 282.44 763.14 301.33 768.14 316.22 773.81 330.89 777.44 346.67"/>
    <polygon class="cls-1" points="852.77 463.93 866.77 454.59 867.44 435.26 866.92 431.78 852.33 421.78 850.1 420.96 830.84 431.04 830.33 452.15 845.44 463.93 846.25 452.59 851.88 452.44 852.77 463.93"/>
    <polygon class="cls-1" points="880.81 458.03 880.81 424.63 850.98 406.58 819.81 427.61 819.81 458.03 849.23 477.27 880.81 458.03"/>
  </g>
  <g>
    <polygon class="cls-1" points="403 368.3 433.22 327.11 462.56 387.41 434.26 369.93 417.81 383.85 403 369.04 403 368.3"/>
    <path class="cls-1" d="m473.56,484.22l-1.11-28.67-2-4.89s-2.44-2.44-6.22-3.33-17.78-3.56-18.44-4.44-14.44-9.26-14.44-9.26l-13.78-11.41,5.56,24s4.89,10,12.22,13.78,22.78,14.67,22.78,14.67l15.44,9.56Z"/>
    <path class="cls-1" d="m500.09,434.96s-25.56-43.33-32.89-59.11-16.89-28.89-21.56-43.33-6.89-25.33-6.44-28.44-5.33,3.33-5.33,3.33l-8.22-15.56-5.11-14.67s6.44-19.11,10.22-24.44,4.67-6.89,4.67-6.89l10.22,23.56,9.56,24.89s4.22,5.33,3.56,13.33-3.11,10.67-3.11,10.67l9.33,12.44,13.11,17.78,3.78,4.44,11.33,4.59,4.44,4.74,2.44.44"/>
    <path class="cls-1" d="m500.15,506.67l-16.67-32s-2.22-16.89-2.22-22,4.44-13.78,4.44-13.78l-9.56-12-15.78-13.11-19.11-7.11-15.56-5.78-6.67,2.22-2.44-.22,1.11-5.78,17.11-16.67,15.33,10.22,14.89,8.89,3.11.67,5.56,11.56,8.67,13.56,13.33,22.22,4.44,4.67"/>
    <path class="cls-1" d="m435,417s3.33,7.89,9,11.22,15.67,7.89,20.89,8.67,6.22.78,6.22.78c0,0,3.22,0-2.89-5.56s-11.78-8.33-17.78-11.33-13.56-4.78-13.56-4.78h-1.89v1Z"/>
    <path class="cls-1" d="m451,579.82l.74-93.09s.45-6.4-12.96-16.38c-13.4-9.98-14.6-12.81-14.6-12.81l-14.89-29.79-9.53-21.45-1.04-5.51,5.21,6.26-3.87-23.09-4.62-15.79-2.23,8.34-8.19,10.43,2.53,46.02,20.4,20.14,34.26,33.18,1.79,2.38.6,78.64,6.4,12.51Z"/>
    <path class="cls-1" d="m500.11,651.29s-5.33-11.56-9.33-21.63-10.52-28.59-15.11-41.63-8.44-22.81-9.19-28.15-1.48-12.15-1.33-15.56,3.85-10.67,3.85-10.67l7.26-5.93,1.04-11.41,1.93-11.56,10.81,10.22,9.19,10.07.89.15"/>
    <path class="cls-1" d="m466,702.89l21.56-6.67,1.56-28.89-31.11-30.22v-10.22l-43.33-38s.22,15.11,1.56,24.22,3.33,16,4.67,22.89,15.78,31.33,15.78,31.33l12.67,18.22,16.67,17.33Z"/>
    <path class="cls-1" d="m327.7,518.96l9.33-10.67,16.89-12.3s21.48,34.96,21.78,35.41,10.96,18.96,14.67,25.63,4.3,6.81,7.26,13.33,6.22,13.33,7.7,15.41,3.11,1.33.89,4.59-8.44,8.59-9.33,8.89-4.3,2.07-4.3,2.07c0,0-8.59-18.81-11.41-23.7s-5.19-9.63-7.85-14.07-8.44-14.07-12.74-18.37-13.63-11.26-16.59-13.63-7.56-6.52-11.26-9.19-5.04-3.41-5.04-3.41Z"/>
    <path class="cls-1" d="m264.03,575.29l-2.45-6.23s29.13-7.34,33.8-8.45,21.79-5.34,29.8-6.67,23.35-5.11,25.8-5.34,6.89,7.78,10.45,13.34,12.9,18.9,13.34,20.24-2.89,10.45-4,12.9-16.01,2.89-16.01,2.89l-7.56,3.34-.89,19.57,1.78,45.15,2,5.78,26.91,21.57v11.34s-1.33.44-3.56,0-14.68-10.01-14.68-10.01l-14.9-12.68s-1.56-.67-7.12-20.24c-5.56-19.57-8.75-57.82-8.75-57.82v-8.9s-12.82-8.45-15.72-12.01-12.01-12.01-12.01-12.01l-2.89-1.11-11.34,2.22s-6,1.78-8.67,2l-13.34,1.11Z"/>
    <polygon class="cls-1" points="266.19 582.67 270.04 616.15 292.26 639.26 329 672.44 321 649.93 320.7 607.56 318.96 603.41 294.33 575.85 266.19 582.67"/>
    <path class="cls-1" d="m250,579.26v-12.89l4-3.26v-4.74c-.22,0-7.63-14.52-11.78-26.37-4.15-11.85-4.15-13.93-8.3-30.52s-5.33-25.19-6.22-34.07c-.89-8.89-.89-16.3-1.19-24.3s0-13.04,0-13.04l-12.44,5.93s-1.48,3.85-1.19,14.81,1.78,25.19,1.78,25.19c0,0,1.78,16.89,3.85,26.96s13.04,40.89,13.04,40.89c0,0,10.67,25.04,14.22,30.22s4.22,5.19,4.22,5.19Z"/>
    <path class="cls-1" d="m185.33,478.81l10.67-10.81,10.07,53.19s4.07,16.15,6.78,23.41,13.82,31.41,16.34,36,9.19,18.67,11.41,21.48,2.22,8.3,2.22,8.74,27.26,30.52,27.26,30.52l27.56,24.44,41.04,37.11-16.44,1.98-17.33-14.64s-35.56-36.44-38.67-40.89-23.56-31.56-23.56-31.56l-9.35-9.33s-13.84-20-20.46-34.22-15.96-40.89-15.96-40.89c0,0-3.56-13.78-4.89-21.78s-6.67-32.74-6.67-32.74Z"/>
    <path class="cls-1" d="m188.59,413.89l50.37-29.04s6.22.59,8.89-21.63l2.67-22.22h-8.59l-73.19,42.37-6.81,8,2.37,5.63,10.67,9.78,13.63,7.11Z"/>
    <path class="cls-1" d="m188.89,366.37l10.67-4.74s2.07-13.04,8-30.22,13.33-40.3,16-44.44-4.15-10.07-4.15-10.07l-8,13.04s-9.19,23.7-10.96,29.93-5.63,17.19-7.11,25.19-4.44,21.33-4.44,21.33Z"/>
    <path class="cls-1" d="m270.07,554.22l11.56-3.56s-10.96-24-15.41-41.78-5.04-21.78-8-34.89-5.33-26.74-4.44-41.85-.3-23.11,2.07-34.07,10.37-45.33,10.37-45.33c0,0,7.7-20.44,10.37-25.63s8.3-13.78,8.3-13.78l-8-9.78-9.48,15.41-9.48,22.52s-5.04,16-7.41,24.89-6.52,21.04-6.52,21.04l-1.78,47.26,2.07,33.33,7.41,36.67,18.37,49.56Z"/>
    <polygon class="cls-1" points="280.15 437.67 302.37 416 305.33 422.22 292.74 437.67 330.22 476.3 280.15 437.67"/>
    <polygon class="cls-1" points="324.3 443.11 344.74 459.41 347.7 448.15 341.48 447.85 324.3 443.11"/>
    <polygon class="cls-1" points="315 416 317.96 412.89 334.85 431.85 315 417.63 315 416"/>
    <polygon class="cls-1" points="360.48 417.63 362.26 409.33 375 422.22 375 430.07 360.48 417.63"/>
    <polygon class="cls-1" points="343 402 343 398.44 313 366.15 313 351.93 305 364.07 305 368.52 341.55 402 343 402"/>
    <path class="cls-1" d="m378.81,451.26l4.74-5.11,13.04,21.85s3.26,4.44,6.22,16.22,4.5,16.96,4.5,16.96l-16.64-31.11-11.85-18.81Z"/>
    <polygon class="cls-1" points="412.74 342.67 429.04 320.59 414.22 287.26 376 257.04 361.48 244.3 357.19 231.85 358.67 201.04 370.07 159.7 383.26 126.37 400.15 93.63 419.7 65.33 393.11 92.3 373.48 116.59 354.52 135.7 332.3 163.11 322.07 183.11 315.41 211.41 309.19 238.96 310.81 242.81 302.96 246.22 309.63 256.59 323.26 280.44 341.93 300.3 368.74 334.07 383.85 350.81 396.89 361.48 412.74 342.67"/>
    <polyline class="cls-1" points="500.15 341.48 476.15 312.74 476.15 232.74 500.15 183.26"/>
    <polygon class="cls-1" points="397 248.15 397 209.33 482.63 151.85 484.11 158.37 402.63 213.41 397 248.15"/>
    <polygon class="cls-1" points="578 255.56 578 221.19 564.67 213.41 561.11 218.81 569.56 227.11 568.22 240.44 578 255.56"/>
    <path class="cls-1" d="m520,140.3v-10.37l-2.07-5.93s-4.15-2.96,14.22,0c18.37,2.96,37.19,6.52,37.19,6.52,0,0,33.04,7.41,38.07,11.56s6.52,5.93,6.52,5.93h-6.81l-4.74,3.85-46.81-10.67-4.74,4.15-30.81-5.04Z"/>
    <path class="cls-1" d="m277.56,188.44s21.56-25.56,28-30,26.67-19.47,28.89-21.18,27.56-19.49,27.56-19.49l10-6.44-27.78,32-10.22,6.56-18.44,12.11-12.59,8.44-12.74,10-12.67,8Z"/>
    <polygon class="cls-1" points="270.22 218.67 278.89 228.67 306 203.78 315.56 196 323.33 172.22 300.22 190.22 289.11 200.44 277.56 210.89 270.22 218.67"/>
    <polygon class="cls-1" points="383.41 671.85 391.41 662.22 413.93 654.52 426.37 677.48 425.33 695.56 395.11 696.3 383.41 671.85"/>
    <polygon class="cls-1" points="374.37 665 384.89 650.93 408.3 646.15 389.93 613.89 360.74 621.3 362.37 646.15 368.74 648.26 362.96 654.78 373.63 665 374.37 665"/>
    <polygon class="cls-1" points="346.96 473.67 356.59 461.19 369.63 473.67 368.74 477.19 358.3 468 349.33 477.19 346.96 473.67"/>
    <polygon class="cls-1" points="223 244.32 224.8 239.6 254.28 206.55 295 248.16 295 254.06 300.61 270.62 277.96 295.67 223 245.58 223 244.32"/>
    <polygon class="cls-1" points="283.7 299.41 300.3 281.04 302.96 276.89 305.19 280.44 306.44 284.07 288.67 304.37 283.7 299.41"/>
    <polygon class="cls-1" points="293.19 308.81 304.96 295.26 310.67 292.52 309.7 300.07 299.26 314.3 293.19 308.81"/>
    <polygon class="cls-1" points="302.96 321.63 312.15 311.7 324.07 329.19 319.11 337.33 303.85 322.37 302.96 321.63"/>
    <polygon class="cls-1" points="332.52 352.74 339.78 341.48 370 367.26 370 384.15 332.52 352.74"/>
    <polygon class="cls-1" points="238.22 241.93 268.59 272.3 270.22 246.22 238.22 241.93"/>
    <path class="cls-1" d="m500,767.56l-62.22-7.11c-62.22-7.11-103.11-40.89-103.11-40.89l13.04-7.11s49.63,32,107.85,35.56,44.44,2.67,44.44,2.67"/>
    <polygon class="cls-1" points="558.18 559.22 563.75 542.74 565 508.08 565 489.33 571.14 476.94 573.98 475.35 570 492.28 570.34 542.51 557.61 563.65 558.18 559.22"/>
    <polygon class="cls-1" points="549.67 597 570.78 573.89 599.33 545.44 580.67 577.41 549.67 597"/>
    <polyline class="cls-1" points="500.17 735.94 495.54 735.94 460.42 735.94 410.09 719.84 418.45 714.47 465.25 718.94 500.17 719.39"/>
    <polygon class="cls-1" points="200.67 391.33 230.44 375.89 231.67 371.33 197 388.11 200.67 391.33"/>
    <polygon class="cls-1" points="222.37 346.67 238.22 337.33 249.33 312.67 259.56 295.85 246.67 282.44 236.67 301.33 231.67 316.22 226 330.89 222.37 346.67"/>
    <polygon class="cls-1" points="147.04 463.93 133.04 454.59 132.37 435.26 132.89 431.78 147.48 421.78 149.7 420.96 168.96 431.04 169.48 452.15 154.37 463.93 153.56 452.59 147.93 452.44 147.04 463.93"/>
    <polygon class="cls-1" points="119 458.03 119 424.63 148.83 406.58 180 427.61 180 458.03 150.58 477.27 119 458.03"/>
  </g>
</svg>